<svg width="68" height="66" viewBox="0 0 68 66" fill="none" xmlns="http://www.w3.org/2000/svg">
<g clip-path="url(#clip0)">
<path d="M67.3429 55.1505L38.1943 6.14841C36.33 3.01435 31.6691 3.01435 29.8049 6.14841L0.656257 55.1505C-1.20801 58.2846 1.12229 62.2023 4.85095 62.2023H63.1483C66.8769 62.2023 69.2073 58.2846 67.3429 55.1505Z" fill="#CD4A4A"/>
<path d="M67.3429 55.1505L38.1943 6.1484C37.454 4.90396 36.2753 4.15451 35.0035 3.89838L5.96131 52.6192C4.83946 54.5054 5.32568 57.0401 7.41572 58.3563C8.13542 58.8095 8.9971 59.0088 9.85505 59.0088H27.804C28.2832 59.0088 28.7603 59.1477 29.1303 59.4432C30.4552 60.501 32.1501 61.1378 33.9996 61.1378C35.8492 61.1378 37.5441 60.5011 38.869 59.4432C39.2391 59.1477 39.7161 59.0088 40.1952 59.0088H67.7382C68.1657 57.7993 68.094 56.4129 67.3429 55.1505Z" fill="#CD4A4A"/>
<path d="M59.1899 54.2184L34.9493 13.4673C34.5271 12.7577 33.4718 12.7577 33.0497 13.4673L8.80924 54.2184C8.38703 54.928 8.91482 55.8151 9.7591 55.8151H27.7135C28.4497 55.8151 29.1112 56.1909 29.5385 56.7728C30.5316 58.1253 32.1579 59.0087 33.9997 59.0087C35.8415 59.0087 37.4678 58.1253 38.461 56.7728C38.8882 56.1909 39.5497 55.8151 40.2859 55.8151H58.2402C59.0845 55.8151 59.6121 54.9281 59.1899 54.2184Z" fill="#212121"/>
<path d="M33.9997 56.8797C35.8168 56.8797 37.29 55.4499 37.29 53.6862C37.29 51.9224 35.8168 50.4926 33.9997 50.4926C32.1825 50.4926 30.7094 51.9224 30.7094 53.6862C30.7094 55.4499 32.1825 56.8797 33.9997 56.8797Z" fill="#CD4A4A"/>
<path d="M35.1526 46.2347H32.8466C32.2633 46.2347 31.782 45.7915 31.7513 45.2261L30.77 27.1296C30.7369 26.5206 31.2368 26.0092 31.8653 26.0092H36.1338C36.7621 26.0092 37.262 26.5206 37.2291 27.1296L36.2477 45.2261C36.2172 45.7915 35.7359 46.2347 35.1526 46.2347Z" fill="#CD4A4A"/>
<path d="M35.7133 55.2164C33.8962 55.2164 32.423 53.7866 32.423 52.0229C32.423 51.5725 32.5286 51.1387 32.7019 50.7501C31.5347 51.2407 30.7092 52.3729 30.7092 53.6862C30.7092 55.4499 32.1824 56.8797 33.9995 56.8797C35.3526 56.8797 36.5171 56.082 37.0226 54.9489C36.6223 55.1173 36.1775 55.2164 35.7133 55.2164Z" fill="#CD4A4A"/>
<path d="M31.8653 26.0092C31.2369 26.0092 30.737 26.5206 30.7701 27.1296L31.7514 45.2261C31.7821 45.7915 32.2633 46.2347 32.8466 46.2347H34.1367L33.3369 26.0092H31.8653Z" fill="#CD4A4A"/>
</g>
<defs>
<clipPath id="clip0">
<rect width="68" height="66" fill="white"/>
</clipPath>
</defs>
</svg>
