<svg width="368" height="196" viewBox="0 0 368 196" fill="none" xmlns="http://www.w3.org/2000/svg">
<g clip-path="url(#clip0)">
<path d="M289.569 56.3879C279.629 56.2018 267.646 58.8465 256.692 63.6435L185.208 94.9474C183.24 93.8786 181.227 93.1626 179.244 92.8461L230.89 70.2297C190.779 78.8833 176.57 53.9555 145.692 67.4776L145.691 67.4779L159.935 98.9452L155.931 100.699L141.687 69.2312C135.054 72.1362 132.865 81.5353 136.798 90.2247L143.92 105.958C138.116 108.5 137.03 111.931 138.584 115.365L143.035 125.199C144.591 128.636 147.913 130.132 153.713 127.592L155.494 131.525C149.689 134.067 148.603 137.498 150.157 140.932L154.609 150.766C156.165 154.203 159.486 155.699 165.287 153.159L172.409 168.893C176.342 177.582 184.908 182.272 191.542 179.367L177.298 147.899L181.301 146.146L195.545 177.613L195.546 177.613C226.424 164.091 217.097 137.026 250.475 113.497L198.829 136.114C199.917 134.453 200.723 132.502 201.233 130.348L272.717 99.0442C283.671 94.2472 293.687 87.2581 300.197 79.8684C306.076 73.1965 308.522 66.866 306.743 62.9345C304.963 59.0031 298.543 56.5557 289.569 56.3879ZM273.159 89.4241C272.628 89.6566 272.025 89.6724 271.483 89.468C270.941 89.2635 270.503 88.8557 270.267 88.3341L263.145 72.6004C262.909 72.0788 262.893 71.4862 263.102 70.953C263.31 70.4198 263.726 69.9896 264.257 69.7571C272.241 66.2605 281.152 85.9239 273.159 89.4241Z" fill="#636363"/>
</g>
<path d="M28.672 76.2565C28.48 76.6191 28.2027 76.8005 27.84 76.8005C27.5627 76.8005 27.2 76.6085 26.752 76.2245C26.3253 75.8191 25.7387 75.3818 24.992 74.9125C24.2453 74.4218 23.3067 73.9738 22.176 73.5685C21.0667 73.1631 19.6907 72.9605 18.048 72.9605C16.4053 72.9605 14.9547 73.1951 13.696 73.6645C12.4587 74.1338 11.4133 74.7738 10.56 75.5845C9.728 76.3951 9.088 77.3338 8.64 78.4005C8.21333 79.4671 8 80.5871 8 81.7605C8 83.2965 8.32 84.5658 8.96 85.5685C9.62133 86.5711 10.4853 87.4245 11.552 88.1285C12.6187 88.8325 13.824 89.4298 15.168 89.9205C16.5333 90.3898 17.9307 90.8591 19.36 91.3285C20.7893 91.7978 22.176 92.3205 23.52 92.8965C24.8853 93.4511 26.1013 94.1551 27.168 95.0085C28.2347 95.8618 29.088 96.9178 29.728 98.1765C30.3893 99.4138 30.72 100.96 30.72 102.816C30.72 104.715 30.3893 106.507 29.728 108.192C29.088 109.856 28.1493 111.307 26.912 112.544C25.6747 113.782 24.16 114.763 22.368 115.488C20.576 116.192 18.528 116.544 16.224 116.544C13.2373 116.544 10.6667 116.022 8.512 114.976C6.35733 113.91 4.46933 112.459 2.848 110.624L3.744 109.216C4 108.896 4.29867 108.736 4.64 108.736C4.832 108.736 5.07733 108.864 5.376 109.12C5.67467 109.376 6.03733 109.696 6.464 110.08C6.89067 110.443 7.40267 110.848 8 111.296C8.59733 111.723 9.29067 112.128 10.08 112.512C10.8693 112.875 11.776 113.184 12.8 113.44C13.824 113.696 14.9867 113.824 16.288 113.824C18.08 113.824 19.68 113.558 21.088 113.024C22.496 112.47 23.68 111.723 24.64 110.784C25.6213 109.846 26.368 108.736 26.88 107.456C27.392 106.155 27.648 104.768 27.648 103.296C27.648 101.696 27.3173 100.384 26.656 99.3605C26.016 98.3151 25.1627 97.4511 24.096 96.7685C23.0293 96.0645 21.8133 95.4778 20.448 95.0085C19.104 94.5391 17.7173 94.0805 16.288 93.6325C14.8587 93.1845 13.4613 92.6831 12.096 92.1285C10.752 91.5738 9.54667 90.8698 8.48 90.0165C7.41333 89.1418 6.54933 88.0645 5.888 86.7845C5.248 85.4831 4.928 83.8618 4.928 81.9205C4.928 80.4058 5.216 78.9445 5.792 77.5365C6.368 76.1285 7.21067 74.8911 8.32 73.8245C9.42933 72.7365 10.7947 71.8725 12.416 71.2325C14.0587 70.5711 15.9253 70.2405 18.016 70.2405C20.3627 70.2405 22.464 70.6138 24.32 71.3605C26.1973 72.1071 27.904 73.2485 29.44 74.7845L28.672 76.2565ZM41.7575 109.088C42.3762 110.006 43.0162 110.784 43.6775 111.424C44.3602 112.043 45.0748 112.555 45.8215 112.96C46.5682 113.344 47.3575 113.622 48.1895 113.792C49.0428 113.963 49.9388 114.048 50.8775 114.048C52.7548 114.048 54.3975 113.707 55.8055 113.024C57.2135 112.342 58.3868 111.382 59.3255 110.144C60.2855 108.886 61.0002 107.392 61.4695 105.664C61.9602 103.915 62.2055 101.995 62.2055 99.9045C62.2055 95.1685 61.3308 91.6911 59.5815 89.4725C57.8322 87.2325 55.3255 86.1125 52.0615 86.1125C49.9495 86.1125 48.0402 86.6565 46.3335 87.7445C44.6268 88.8325 43.1015 90.3471 41.7575 92.2885V109.088ZM41.6295 89.9205C43.0375 88.0005 44.6802 86.4751 46.5575 85.3445C48.4562 84.2138 50.5788 83.6485 52.9255 83.6485C56.8295 83.6485 59.8695 85.0031 62.0455 87.7125C64.2428 90.4218 65.3415 94.4858 65.3415 99.9045C65.3415 102.23 65.0322 104.406 64.4135 106.432C63.8162 108.438 62.9202 110.187 61.7255 111.68C60.5522 113.152 59.1015 114.315 57.3735 115.168C55.6668 116.022 53.6935 116.448 51.4535 116.448C49.2988 116.448 47.4322 116.054 45.8535 115.264C44.2748 114.475 42.9095 113.312 41.7575 111.776V127.296H38.6855V84.1925H40.3815C40.9148 84.1925 41.2242 84.4591 41.3095 84.9925L41.6295 89.9205ZM91.822 100.64C88.7927 100.747 86.1793 100.992 83.982 101.376C81.806 101.739 80.0033 102.24 78.574 102.88C77.166 103.52 76.1207 104.288 75.438 105.184C74.7553 106.059 74.414 107.062 74.414 108.192C74.414 109.259 74.5847 110.187 74.926 110.976C75.2887 111.744 75.758 112.384 76.334 112.896C76.9313 113.387 77.614 113.75 78.382 113.984C79.15 114.219 79.95 114.336 80.782 114.336C82.0193 114.336 83.15 114.208 84.174 113.952C85.2193 113.675 86.1793 113.302 87.054 112.832C87.95 112.342 88.782 111.766 89.55 111.104C90.318 110.443 91.0753 109.728 91.822 108.96V100.64ZM73.102 88.7045C74.766 87.0405 76.5153 85.7818 78.35 84.9285C80.1847 84.0751 82.2647 83.6485 84.59 83.6485C86.2967 83.6485 87.79 83.9258 89.07 84.4805C90.35 85.0138 91.406 85.7925 92.238 86.8165C93.0913 87.8191 93.7313 89.0458 94.158 90.4965C94.5847 91.9258 94.798 93.5258 94.798 95.2965V116.032H93.582C92.942 116.032 92.5473 115.734 92.398 115.136L91.95 111.04C91.0753 111.894 90.2007 112.662 89.326 113.344C88.4727 114.027 87.5767 114.603 86.638 115.072C85.6993 115.542 84.686 115.904 83.598 116.16C82.51 116.416 81.3153 116.544 80.014 116.544C78.926 116.544 77.87 116.384 76.846 116.064C75.822 115.744 74.9047 115.254 74.094 114.592C73.3047 113.931 72.6647 113.088 72.174 112.064C71.7047 111.019 71.47 109.771 71.47 108.32C71.47 106.976 71.854 105.728 72.622 104.576C73.39 103.424 74.5953 102.422 76.238 101.568C77.8807 100.715 79.982 100.032 82.542 99.5205C85.1233 99.0085 88.2167 98.7098 91.822 98.6245V95.2965C91.822 92.3525 91.182 90.0911 89.902 88.5125C88.6433 86.9125 86.766 86.1125 84.27 86.1125C82.734 86.1125 81.422 86.3258 80.334 86.7525C79.2673 87.1791 78.3607 87.6485 77.614 88.1605C76.8673 88.6725 76.2593 89.1418 75.79 89.5685C75.3207 89.9951 74.926 90.2085 74.606 90.2085C74.3713 90.2085 74.1793 90.1551 74.03 90.0485C73.8807 89.9418 73.7527 89.8031 73.646 89.6325L73.102 88.7045ZM126.406 88.4485C126.299 88.5551 126.193 88.6511 126.086 88.7365C126.001 88.8005 125.873 88.8325 125.702 88.8325C125.489 88.8325 125.201 88.6938 124.838 88.4165C124.475 88.1178 123.985 87.7978 123.366 87.4565C122.747 87.1151 121.969 86.8058 121.03 86.5285C120.113 86.2298 118.993 86.0805 117.67 86.0805C115.835 86.0805 114.203 86.4111 112.774 87.0725C111.366 87.7125 110.171 88.6405 109.19 89.8565C108.209 91.0725 107.462 92.5445 106.95 94.2725C106.459 96.0005 106.214 97.9418 106.214 100.096C106.214 102.336 106.47 104.32 106.982 106.048C107.515 107.776 108.262 109.238 109.222 110.432C110.182 111.606 111.345 112.502 112.71 113.12C114.075 113.739 115.59 114.048 117.254 114.048C118.79 114.048 120.07 113.867 121.094 113.504C122.139 113.142 122.993 112.747 123.654 112.32C124.337 111.894 124.87 111.499 125.254 111.136C125.638 110.774 125.958 110.592 126.214 110.592C126.47 110.592 126.683 110.699 126.854 110.912L127.654 111.936C127.163 112.576 126.545 113.174 125.798 113.728C125.051 114.283 124.209 114.763 123.27 115.168C122.331 115.574 121.307 115.883 120.198 116.096C119.11 116.331 117.969 116.448 116.774 116.448C114.747 116.448 112.891 116.086 111.206 115.36C109.542 114.614 108.102 113.547 106.886 112.16C105.691 110.752 104.753 109.035 104.07 107.008C103.409 104.982 103.078 102.678 103.078 100.096C103.078 97.6645 103.398 95.4458 104.038 93.4405C104.678 91.4351 105.617 89.7071 106.854 88.2565C108.091 86.8058 109.595 85.6858 111.366 84.8965C113.158 84.0858 115.206 83.6805 117.51 83.6805C119.579 83.6805 121.414 84.0111 123.014 84.6725C124.614 85.3338 126.011 86.2298 127.206 87.3605L126.406 88.4485ZM156.897 96.8965C156.897 95.1898 156.651 93.6645 156.161 92.3205C155.691 90.9551 155.019 89.8031 154.145 88.8645C153.27 87.9258 152.225 87.2111 151.009 86.7205C149.814 86.2085 148.491 85.9525 147.041 85.9525C145.398 85.9525 143.926 86.2085 142.625 86.7205C141.323 87.2325 140.193 87.9685 139.233 88.9285C138.294 89.8885 137.537 91.0405 136.961 92.3845C136.385 93.7285 136.001 95.2325 135.809 96.8965H156.897ZM135.649 98.8485V99.4565C135.649 101.846 135.926 103.947 136.481 105.76C137.035 107.574 137.825 109.099 138.849 110.336C139.873 111.552 141.11 112.47 142.561 113.088C144.011 113.707 145.633 114.016 147.425 114.016C149.025 114.016 150.411 113.846 151.585 113.504C152.758 113.142 153.739 112.747 154.529 112.32C155.339 111.872 155.979 111.478 156.449 111.136C156.918 110.774 157.259 110.592 157.473 110.592C157.75 110.592 157.963 110.699 158.113 110.912L158.945 111.936C158.433 112.576 157.75 113.174 156.897 113.728C156.065 114.283 155.126 114.763 154.081 115.168C153.057 115.552 151.947 115.862 150.753 116.096C149.579 116.331 148.395 116.448 147.201 116.448C145.025 116.448 143.041 116.075 141.249 115.328C139.457 114.56 137.921 113.451 136.641 112C135.361 110.55 134.369 108.779 133.665 106.688C132.982 104.576 132.641 102.166 132.641 99.4565C132.641 97.1738 132.961 95.0725 133.601 93.1525C134.262 91.2111 135.201 89.5471 136.417 88.1605C137.654 86.7525 139.158 85.6538 140.929 84.8645C142.721 84.0751 144.747 83.6805 147.009 83.6805C148.801 83.6805 150.465 83.9898 152.001 84.6085C153.537 85.2271 154.87 86.1338 156.001 87.3285C157.131 88.5018 158.017 89.9525 158.657 91.6805C159.318 93.4085 159.649 95.3925 159.649 97.6325C159.649 98.1018 159.585 98.4218 159.457 98.5925C159.329 98.7631 159.115 98.8485 158.817 98.8485H135.649ZM108.86 158.416C109.073 158.416 109.255 158.491 109.404 158.64L110.684 160.016C109.745 161.019 108.721 161.926 107.612 162.736C106.524 163.526 105.319 164.208 103.996 164.784C102.695 165.339 101.255 165.766 99.676 166.064C98.1187 166.384 96.4013 166.544 94.524 166.544C91.388 166.544 88.508 166 85.884 164.912C83.2813 163.803 81.0413 162.246 79.164 160.24C77.2867 158.214 75.8253 155.771 74.78 152.912C73.756 150.054 73.244 146.875 73.244 143.376C73.244 139.942 73.7773 136.806 74.844 133.968C75.9107 131.131 77.404 128.699 79.324 126.672C81.244 124.624 83.548 123.046 86.236 121.936C88.924 120.806 91.8893 120.24 95.132 120.24C98.2253 120.24 100.967 120.72 103.356 121.68C105.745 122.64 107.921 123.995 109.884 125.744L108.892 127.184C108.721 127.44 108.455 127.568 108.092 127.568C107.836 127.568 107.42 127.334 106.844 126.864C106.268 126.395 105.468 125.883 104.444 125.328C103.42 124.752 102.14 124.23 100.604 123.76C99.0893 123.291 97.2653 123.056 95.132 123.056C92.4013 123.056 89.8947 123.526 87.612 124.464C85.3507 125.403 83.3987 126.747 81.756 128.496C80.1347 130.246 78.8653 132.379 77.948 134.896C77.0307 137.414 76.572 140.24 76.572 143.376C76.572 146.576 77.0307 149.435 77.948 151.952C78.8867 154.47 80.1667 156.603 81.788 158.352C83.4093 160.08 85.3187 161.414 87.516 162.352C89.7347 163.27 92.124 163.728 94.684 163.728C96.3053 163.728 97.7453 163.622 99.004 163.408C100.284 163.195 101.457 162.875 102.524 162.448C103.591 162.022 104.583 161.499 105.5 160.88C106.417 160.262 107.324 159.536 108.22 158.704C108.327 158.619 108.433 158.555 108.54 158.512C108.647 158.448 108.753 158.416 108.86 158.416ZM121.39 134.192V166.032H118.35V134.192H121.39ZM122.702 123.216C122.702 123.6 122.617 123.963 122.446 124.304C122.297 124.624 122.094 124.912 121.838 125.168C121.582 125.424 121.283 125.627 120.942 125.776C120.601 125.926 120.238 126 119.854 126C119.47 126 119.107 125.926 118.766 125.776C118.425 125.627 118.126 125.424 117.87 125.168C117.614 124.912 117.411 124.624 117.262 124.304C117.113 123.963 117.038 123.6 117.038 123.216C117.038 122.832 117.113 122.47 117.262 122.128C117.411 121.766 117.614 121.456 117.87 121.2C118.126 120.944 118.425 120.742 118.766 120.592C119.107 120.443 119.47 120.368 119.854 120.368C120.238 120.368 120.601 120.443 120.942 120.592C121.283 120.742 121.582 120.944 121.838 121.2C122.094 121.456 122.297 121.766 122.446 122.128C122.617 122.47 122.702 122.832 122.702 123.216ZM158.68 166.032H155.608V137.456H137.176V159.056C137.176 159.931 137.283 160.688 137.496 161.328C137.731 161.947 138.04 162.459 138.424 162.864C138.829 163.27 139.299 163.568 139.832 163.76C140.365 163.952 140.941 164.048 141.56 164.048C142.328 164.048 142.989 163.942 143.544 163.728C144.099 163.494 144.579 163.248 144.984 162.992C145.389 162.715 145.72 162.47 145.976 162.256C146.232 162.022 146.435 161.904 146.584 161.904C146.755 161.904 146.925 162.011 147.096 162.224L147.928 163.568C147.117 164.464 146.083 165.19 144.824 165.744C143.587 166.278 142.296 166.544 140.952 166.544C138.797 166.544 137.112 165.947 135.896 164.752C134.701 163.558 134.104 161.712 134.104 159.216V137.456H129.528C129.293 137.456 129.101 137.392 128.952 137.264C128.803 137.136 128.728 136.955 128.728 136.72V135.536L134.168 135.152L134.936 123.76C134.979 123.568 135.064 123.398 135.192 123.248C135.32 123.099 135.501 123.024 135.736 123.024H137.176V135.184H158.68V166.032ZM160.088 122.832C160.088 123.216 160.003 123.579 159.832 123.92C159.683 124.24 159.469 124.528 159.192 124.784C158.936 125.04 158.637 125.243 158.296 125.392C157.955 125.542 157.592 125.616 157.208 125.616C156.824 125.616 156.461 125.542 156.12 125.392C155.779 125.243 155.48 125.04 155.224 124.784C154.968 124.528 154.765 124.24 154.616 123.92C154.467 123.579 154.392 123.216 154.392 122.832C154.392 122.448 154.467 122.086 154.616 121.744C154.765 121.382 154.968 121.072 155.224 120.816C155.48 120.56 155.779 120.358 156.12 120.208C156.461 120.059 156.824 119.984 157.208 119.984C157.592 119.984 157.955 120.059 158.296 120.208C158.637 120.358 158.936 120.56 159.192 120.816C159.469 121.072 159.683 121.382 159.832 121.744C160.003 122.086 160.088 122.448 160.088 122.832ZM190.394 134.192V135.472C190.394 135.92 190.245 136.326 189.946 136.688L170.01 163.632H189.594V166.032H166.33V164.816C166.33 164.454 166.49 164.059 166.81 163.632L186.81 136.592H167.386V134.192H190.394ZM219.584 146.896C219.584 145.19 219.339 143.664 218.848 142.32C218.379 140.955 217.707 139.803 216.832 138.864C215.957 137.926 214.912 137.211 213.696 136.72C212.501 136.208 211.179 135.952 209.728 135.952C208.085 135.952 206.613 136.208 205.312 136.72C204.011 137.232 202.88 137.968 201.92 138.928C200.981 139.888 200.224 141.04 199.648 142.384C199.072 143.728 198.688 145.232 198.496 146.896H219.584ZM198.336 148.848V149.456C198.336 151.846 198.613 153.947 199.168 155.76C199.723 157.574 200.512 159.099 201.536 160.336C202.56 161.552 203.797 162.47 205.248 163.088C206.699 163.707 208.32 164.016 210.112 164.016C211.712 164.016 213.099 163.846 214.272 163.504C215.445 163.142 216.427 162.747 217.216 162.32C218.027 161.872 218.667 161.478 219.136 161.136C219.605 160.774 219.947 160.592 220.16 160.592C220.437 160.592 220.651 160.699 220.8 160.912L221.632 161.936C221.12 162.576 220.437 163.174 219.584 163.728C218.752 164.283 217.813 164.763 216.768 165.168C215.744 165.552 214.635 165.862 213.44 166.096C212.267 166.331 211.083 166.448 209.888 166.448C207.712 166.448 205.728 166.075 203.936 165.328C202.144 164.56 200.608 163.451 199.328 162C198.048 160.55 197.056 158.779 196.352 156.688C195.669 154.576 195.328 152.166 195.328 149.456C195.328 147.174 195.648 145.072 196.288 143.152C196.949 141.211 197.888 139.547 199.104 138.16C200.341 136.752 201.845 135.654 203.616 134.864C205.408 134.075 207.435 133.68 209.696 133.68C211.488 133.68 213.152 133.99 214.688 134.608C216.224 135.227 217.557 136.134 218.688 137.328C219.819 138.502 220.704 139.952 221.344 141.68C222.005 143.408 222.336 145.392 222.336 147.632C222.336 148.102 222.272 148.422 222.144 148.592C222.016 148.763 221.803 148.848 221.504 148.848H198.336ZM233.535 139.76C235.007 137.926 236.703 136.454 238.623 135.344C240.564 134.235 242.719 133.68 245.087 133.68C246.836 133.68 248.372 133.958 249.695 134.512C251.039 135.067 252.148 135.867 253.023 136.912C253.898 137.958 254.559 139.216 255.007 140.688C255.455 142.16 255.679 143.824 255.679 145.68V166.032H252.607V145.68C252.607 142.694 251.924 140.358 250.559 138.672C249.194 136.966 247.114 136.112 244.319 136.112C242.25 136.112 240.308 136.646 238.495 137.712C236.703 138.758 235.103 140.219 233.695 142.096V166.032H230.623V134.192H232.319C232.852 134.192 233.162 134.459 233.247 134.992L233.535 139.76Z" fill="white"/>
<defs>
<clipPath id="clip0">
<rect width="174.829" height="138.164" fill="white" transform="matrix(0.916017 -0.401139 0.412381 0.911011 118.108 70.1307)"/>
</clipPath>
</defs>
</svg>
