<svg width="688" height="615" viewBox="0 0 688 615" fill="none" xmlns="http://www.w3.org/2000/svg">
<path d="M558.402 615C629.977 615 688 606.319 688 595.612C688 584.904 629.977 576.223 558.402 576.223C486.828 576.223 428.805 584.904 428.805 595.612C428.805 606.319 486.828 615 558.402 615Z" fill="#E6E6E6"/>
<path d="M0 0H687.224V0.000566141C687.224 74.7546 672.498 148.777 643.887 217.84C615.276 286.904 573.34 349.657 520.473 402.516C467.606 455.375 404.844 497.305 335.77 525.912C266.697 554.519 192.664 569.243 117.899 569.243H0V0Z" fill="#3F3D56"/>
<path d="M506.389 194.123C537.182 194.123 562.145 169.164 562.145 138.375C562.145 107.586 537.182 82.627 506.389 82.627C475.596 82.627 450.633 107.586 450.633 138.375C450.633 169.164 475.596 194.123 506.389 194.123Z" fill="#F2F2F2"/>
<path d="M335.138 30.0646C337.778 30.0646 339.917 27.9252 339.917 25.2862C339.917 22.6472 337.778 20.5078 335.138 20.5078C332.499 20.5078 330.359 22.6472 330.359 25.2862C330.359 27.9252 332.499 30.0646 335.138 30.0646Z" fill="#FF6584"/>
<path d="M490.459 350.217C493.098 350.217 495.238 348.078 495.238 345.439C495.238 342.8 493.098 340.66 490.459 340.66C487.819 340.66 485.68 342.8 485.68 345.439C485.68 348.078 487.819 350.217 490.459 350.217Z" fill="#FF6584"/>
<path d="M506.389 30.0646C509.028 30.0646 511.168 27.9252 511.168 25.2862C511.168 22.6472 509.028 20.5078 506.389 20.5078C503.75 20.5078 501.61 22.6472 501.61 25.2862C501.61 27.9252 503.75 30.0646 506.389 30.0646Z" fill="#F2F2F2"/>
<path d="M573.296 260.224C575.936 260.224 578.075 258.085 578.075 255.446C578.075 252.807 575.936 250.667 573.296 250.667C570.657 250.667 568.517 252.807 568.517 255.446C568.517 258.085 570.657 260.224 573.296 260.224Z" fill="#F2F2F2"/>
<path d="M382.929 159.081C385.569 159.081 387.708 156.942 387.708 154.303C387.708 151.664 385.569 149.525 382.929 149.525C380.29 149.525 378.15 151.664 378.15 154.303C378.15 156.942 380.29 159.081 382.929 159.081Z" fill="#F2F2F2"/>
<path d="M130.434 127.225C133.074 127.225 135.213 125.086 135.213 122.447C135.213 119.808 133.074 117.669 130.434 117.669C127.795 117.669 125.655 119.808 125.655 122.447C125.655 125.086 127.795 127.225 130.434 127.225Z" fill="#F2F2F2"/>
<path d="M220.44 483.216C310.18 483.216 382.929 410.478 382.929 320.75C382.929 231.023 310.18 158.285 220.44 158.285C130.7 158.285 57.9512 231.023 57.9512 320.75C57.9512 410.478 130.7 483.216 220.44 483.216Z" fill="#EA4D4D"/>
<path opacity="0.2" d="M213.271 278.541C226.468 278.541 237.167 267.844 237.167 254.649C237.167 241.454 226.468 230.757 213.271 230.757C200.074 230.757 189.376 241.454 189.376 254.649C189.376 267.844 200.074 278.541 213.271 278.541Z" fill="black"/>
<path opacity="0.2" d="M213.272 456.138C236.146 456.138 254.69 437.597 254.69 414.725C254.69 391.854 236.146 373.313 213.272 373.313C190.397 373.313 171.853 391.854 171.853 414.725C171.853 437.597 190.397 456.138 213.272 456.138Z" fill="black"/>
<path opacity="0.2" d="M92.9978 362.163C98.7165 362.163 103.352 357.528 103.352 351.81C103.352 346.092 98.7165 341.457 92.9978 341.457C87.279 341.457 82.6431 346.092 82.6431 351.81C82.6431 357.528 87.279 362.163 92.9978 362.163Z" fill="black"/>
<path opacity="0.2" d="M501.539 115.123C504.579 115.123 507.043 112.659 507.043 109.619C507.043 106.58 504.579 104.116 501.539 104.116C498.499 104.116 496.034 106.58 496.034 109.619C496.034 112.659 498.499 115.123 501.539 115.123Z" fill="black"/>
<path opacity="0.2" d="M268.16 224.23C271.2 224.23 273.664 221.766 273.664 218.726C273.664 215.686 271.2 213.222 268.16 213.222C265.12 213.222 262.656 215.686 262.656 218.726C262.656 221.766 265.12 224.23 268.16 224.23Z" fill="black"/>
<path opacity="0.2" d="M206.103 335.086C210.062 335.086 213.272 331.877 213.272 327.918C213.272 323.959 210.062 320.75 206.103 320.75C202.144 320.75 198.934 323.959 198.934 327.918C198.934 331.877 202.144 335.086 206.103 335.086Z" fill="black"/>
<path opacity="0.2" d="M488.14 159.096C491.18 159.096 493.645 156.631 493.645 153.592C493.645 150.552 491.18 148.088 488.14 148.088C485.1 148.088 482.636 150.552 482.636 153.592C482.636 156.631 485.1 159.096 488.14 159.096Z" fill="black"/>
<path opacity="0.2" d="M339.988 294.483C343.028 294.483 345.493 292.019 345.493 288.98C345.493 285.94 343.028 283.476 339.988 283.476C336.948 283.476 334.484 285.94 334.484 288.98C334.484 292.019 336.948 294.483 339.988 294.483Z" fill="black"/>
<path opacity="0.2" d="M537.467 156.351C541.858 156.351 545.418 152.792 545.418 148.401C545.418 144.011 541.858 140.451 537.467 140.451C533.076 140.451 529.516 144.011 529.516 148.401C529.516 152.792 533.076 156.351 537.467 156.351Z" fill="black"/>
<path opacity="0.2" d="M294.53 353.061C298.921 353.061 302.481 349.502 302.481 345.112C302.481 340.721 298.921 337.162 294.53 337.162C290.139 337.162 286.579 340.721 286.579 345.112C286.579 349.502 290.139 353.061 294.53 353.061Z" fill="black"/>
<path opacity="0.2" d="M120.079 265.002C125.798 265.002 130.434 260.367 130.434 254.649C130.434 248.931 125.798 244.296 120.079 244.296C114.361 244.296 109.725 248.931 109.725 254.649C109.725 260.367 114.361 265.002 120.079 265.002Z" fill="black"/>
<path d="M255.646 414.398C238.558 414.375 221.485 413.389 204.508 411.443C153.446 405.645 106.353 391.945 71.9035 372.866C37.0327 353.554 19.1893 330.94 21.6594 309.192C23.3706 294.124 37.9366 280.637 66.1891 267.963C66.5745 267.79 67.0125 267.778 67.4069 267.929C67.8012 268.079 68.1197 268.38 68.2925 268.765C68.4653 269.15 68.4782 269.588 68.3284 269.983C68.1786 270.377 67.8784 270.696 67.4936 270.87C40.3557 283.044 26.3988 295.696 24.8252 309.551C22.5095 329.936 39.7774 351.432 73.4476 370.08C107.539 388.961 154.211 402.526 204.867 408.278C255.523 414.03 304.049 411.274 341.507 400.518C378.502 389.894 400.151 372.817 402.466 352.432C404.032 338.641 396.435 324.019 380.495 310.145C380.177 309.868 379.981 309.475 379.952 309.054C379.923 308.632 380.062 308.216 380.34 307.898C380.617 307.579 381.01 307.383 381.432 307.354C381.853 307.325 382.269 307.465 382.588 307.742C399.354 322.335 407.322 337.913 405.632 352.791C403.161 374.54 380.701 392.577 342.386 403.579C317.44 410.743 287.665 414.398 255.646 414.398Z" fill="white"/>
<path d="M505.557 559.24L506.685 569.399L496.525 568.27V555.853L505.557 559.24Z" fill="#FFB8B8"/>
<path d="M611.682 559.24L610.552 569.399L620.713 568.27V555.853L611.682 559.24Z" fill="#FFB8B8"/>
<path d="M504.428 340.247L499.912 456.516C499.912 456.516 485.235 543.436 488.622 545.694C492.009 547.951 488.622 560.369 488.622 560.369L507.815 562.626C507.815 562.626 507.815 553.596 512.331 550.209C516.847 546.823 558.619 387.658 558.619 387.658L601.521 541.179C601.521 541.179 600.392 550.209 603.779 550.209C607.166 550.209 608.295 562.626 608.295 562.626H627.488V550.209C627.488 550.209 633.133 549.08 629.746 540.05C626.359 531.019 613.94 340.247 613.94 340.247L504.428 340.247Z" fill="#2F2E41"/>
<path d="M498.783 559.24C498.783 559.24 493.138 555.853 490.88 558.111C488.622 560.369 470.558 582.945 470.558 582.945C470.558 582.945 445.72 598.749 468.3 603.264C490.88 607.779 507.815 586.332 508.944 584.074C510.073 581.816 507.815 563.755 506.686 566.013C505.557 568.27 502.17 567.142 501.041 566.013C499.912 564.884 498.783 559.24 498.783 559.24Z" fill="#2F2E41"/>
<path d="M618.456 559.24C618.456 559.24 624.1 555.853 626.358 558.111C628.616 560.369 646.68 582.945 646.68 582.945C646.68 582.945 671.518 598.749 648.938 603.264C626.358 607.779 609.424 586.332 608.295 584.074C607.166 581.816 609.424 563.755 610.553 566.013C611.682 568.27 615.069 567.142 616.198 566.013C617.327 564.884 618.456 559.24 618.456 559.24Z" fill="#2F2E41"/>
<path d="M572.731 173.181C585.514 173.181 595.876 162.821 595.876 150.04C595.876 137.26 585.514 126.899 572.731 126.899C559.949 126.899 549.587 137.26 549.587 150.04C549.587 162.821 559.949 173.181 572.731 173.181Z" fill="#FFB8B8"/>
<path d="M557.49 163.021L554.103 198.015L581.199 203.66L587.973 161.893L557.49 163.021Z" fill="#FFB8B8"/>
<path d="M585.715 190.113C585.715 190.113 578.941 204.788 554.103 188.985L507.815 340.247C507.815 340.247 569.909 377.499 609.424 349.278L595.876 196.886L585.715 190.113Z" fill="#EA4D4D"/>
<path d="M558.619 173.181L537.168 169.795L534.91 184.469C534.91 184.469 505.557 187.856 502.17 199.144L505.557 282.677C505.557 282.677 495.396 300.738 504.428 312.027C504.428 312.027 489.751 342.505 501.041 348.149C501.041 348.149 527.007 335.732 542.813 339.119C542.813 339.119 551.845 336.861 551.845 330.088C551.845 323.315 558.619 173.181 558.619 173.181Z" fill="#2F2E41"/>
<path d="M584.586 175.439L597.005 178.825L598.134 194.629C598.134 194.629 628.617 213.819 629.746 225.107C630.875 236.395 607.166 290.579 607.166 290.579C607.166 290.579 616.198 306.383 612.811 316.542C612.811 316.542 627.488 345.891 618.456 353.793C618.456 353.793 601.521 358.309 599.263 351.536C597.005 344.763 576.683 266.874 585.715 229.622C585.715 229.622 576.683 182.212 584.586 175.439Z" fill="#2F2E41"/>
<path d="M597.569 212.201H597.144V200.561C597.144 199.677 596.97 198.801 596.631 197.983C596.293 197.166 595.797 196.423 595.171 195.798C594.545 195.172 593.803 194.676 592.985 194.338C592.168 193.999 591.292 193.825 590.407 193.825H565.743C564.859 193.825 563.983 193.999 563.165 194.338C562.348 194.676 561.605 195.172 560.979 195.798C560.354 196.423 559.857 197.166 559.519 197.983C559.18 198.801 559.006 199.677 559.006 200.561V264.416C559.006 265.301 559.18 266.177 559.519 266.994C559.857 267.812 560.354 268.554 560.979 269.18C561.605 269.805 562.348 270.302 563.165 270.64C563.983 270.979 564.859 271.153 565.743 271.153H590.407C591.292 271.153 592.168 270.979 592.985 270.64C593.803 270.302 594.545 269.805 595.171 269.18C595.797 268.554 596.293 267.812 596.631 266.994C596.97 266.177 597.144 265.301 597.144 264.416V220.486H597.569V212.201Z" fill="white"/>
<path d="M608.295 257.843C608.295 257.843 599.263 228.494 585.715 237.524C572.167 246.555 594.747 271.389 594.747 271.389L608.295 257.843Z" fill="#FFB8B8"/>
<path d="M546.2 236.395C546.2 236.395 562.006 217.205 569.909 226.236C577.812 235.267 556.361 255.585 556.361 255.585L546.2 236.395Z" fill="#FFB8B8"/>
<path d="M505.557 198.015C505.557 198.015 499.912 196.886 496.525 207.046C493.138 217.205 480.719 255.585 480.719 262.358C480.719 269.131 485.235 296.223 510.072 291.708C534.91 287.192 564.264 255.585 564.264 255.585L548.458 231.88L514.588 252.199L505.557 198.015Z" fill="#2F2E41"/>
<path opacity="0.1" d="M510.435 227.28L515.153 251.634L550.152 231.316L517.411 243.733L510.193 225.827L510.435 227.28Z" fill="black"/>
<path opacity="0.1" d="M609.988 251.634L614.504 255.021L616.762 239.217L609.988 251.634Z" fill="black"/>
<path opacity="0.1" d="M504.992 294.53C504.992 294.53 538.154 285.51 553.749 265.75C553.749 265.75 537.733 292.272 504.992 294.53Z" fill="black"/>
<path opacity="0.1" d="M588.537 274.211C588.537 274.211 595.52 308.381 613.48 309.357C613.48 309.357 591.924 315.978 588.537 274.211Z" fill="black"/>
<path d="M625.229 220.592C625.229 220.592 628.616 222.849 630.874 233.009C633.132 243.168 647.809 281.548 642.164 290.579C636.519 299.61 627.487 319.929 608.295 306.383L589.102 271.389L608.295 253.328L616.198 258.972L625.229 220.592Z" fill="#2F2E41"/>
<path d="M550.513 155.909C550.513 155.909 531.102 124.455 551.777 122.819C558.677 122.337 565.414 120.501 571.604 117.418C578.458 113.931 587.084 111.28 591.675 116.648C593.678 119.102 596.014 121.266 598.614 123.076C602.647 125.75 607.313 130.084 604.729 134.734L600.493 142.357L594.563 157.603C595.944 151.027 595.979 145.506 592.446 142.781C592.446 142.781 572.732 151.169 562.796 136.005C551.675 127.661 548.136 153.923 550.513 155.909Z" fill="#2F2E41"/>
<path d="M578.376 222.285C581.494 222.285 584.021 219.758 584.021 216.641C584.021 213.524 581.494 210.997 578.376 210.997C575.259 210.997 572.731 213.524 572.731 216.641C572.731 219.758 575.259 222.285 578.376 222.285Z" fill="#EA4D4D"/>
</svg>
