<svg width="465" height="247" viewBox="0 0 465 247" fill="none" xmlns="http://www.w3.org/2000/svg">
<g clip-path="url(#clip0)">
<path d="M302.589 188.75C302.573 187.861 301.829 187.154 300.925 187.169C300.023 187.185 299.304 187.917 299.319 188.805C299.336 189.692 300.08 190.399 300.983 190.385C301.886 190.368 302.605 189.636 302.589 188.75Z" fill="#EA4D4D"/>
<path d="M332.015 188.243C331.936 183.801 328.216 180.268 323.698 180.345C319.192 180.423 315.589 184.091 315.666 188.524C315.747 192.955 319.476 196.499 323.983 196.422C328.5 196.344 332.094 192.686 332.015 188.243ZM323.926 193.207C321.223 193.253 318.984 191.127 318.936 188.468C318.89 185.809 321.052 183.607 323.755 183.561C326.465 183.514 328.698 185.634 328.745 188.3C328.793 190.965 326.637 193.16 323.926 193.207Z" fill="#EA4D4D"/>
<path d="M358.172 187.794C358.164 187.348 357.97 186.925 357.63 186.626C357.355 186.383 350.778 180.62 340.682 176.089C332.594 172.455 324.622 170.68 316.988 170.811C315.277 170.84 313.539 170.943 311.803 171.117C310.146 165.248 306.385 163.023 303.434 162.199C296.64 160.303 287.583 164.07 283.087 168.648C282.629 169.116 282.501 169.81 282.765 170.406C282.852 170.604 282.976 170.778 283.128 170.922C283.434 171.212 283.85 171.38 284.293 171.373C288.936 171.293 291.706 174.205 292.537 175.232L292.552 176.028C289.878 177.155 287.373 178.421 285.092 179.801C284.268 180.301 283.636 181.059 283.262 181.945C281.626 181.383 279.793 181.099 277.923 181.131C271.972 181.233 264.232 187.905 263.905 188.189C263.547 188.501 263.345 188.951 263.353 189.422C263.361 189.85 263.542 190.255 263.852 190.55C263.883 190.579 263.915 190.608 263.948 190.635C264.285 190.907 272.257 197.31 278.208 197.208C280.078 197.175 281.899 196.829 283.514 196.211C283.943 197.135 284.623 197.845 285.421 198.291C287.749 199.591 290.297 200.771 293.009 201.805L293.023 202.601C292.229 203.656 289.563 206.661 284.92 206.741C284.259 206.752 283.67 207.154 283.428 207.759C283.185 208.364 283.337 209.053 283.813 209.505C288.468 213.926 297.654 217.38 304.376 215.252C307.295 214.328 310.976 211.975 312.424 206.052C314.164 206.166 315.905 206.21 317.616 206.18C325.25 206.049 333.154 204.001 341.107 200.092C351.037 195.217 357.406 189.232 357.672 188.98C357.999 188.67 358.18 188.24 358.172 187.794ZM288.16 168.657C292.305 165.874 298.174 164.074 302.542 165.293C305.46 166.108 307.466 168.204 308.52 171.531C304.195 172.186 299.933 173.267 295.799 174.759C295.792 174.732 295.838 174.269 295.53 173.809C295.404 173.619 292.938 170.006 288.16 168.657ZM278.151 193.992C274.972 194.047 270.355 191.283 267.621 189.348C270.285 187.321 274.802 184.401 277.98 184.346C279.76 184.316 281.474 184.638 282.903 185.26L283.038 192.91C281.632 193.581 279.932 193.962 278.151 193.992ZM287.038 195.496C286.613 195.258 286.342 194.758 286.332 194.192C286.28 191.251 286.259 190.1 286.253 189.739C286.241 189.077 286.212 187.454 286.149 183.867C286.139 183.3 286.392 182.791 286.807 182.539C288.6 181.454 290.547 180.442 292.613 179.516L292.947 198.317C290.848 197.463 288.868 196.518 287.038 195.496ZM303.374 212.191C299.053 213.559 293.124 211.962 288.882 209.322C292.058 208.307 294.915 205.887 296.084 203.886C296.356 203.421 296.292 202.997 296.3 202.962C300.484 204.311 304.782 205.245 309.127 205.752C308.192 209.113 306.262 211.277 303.374 212.191ZM317.559 202.965C315.476 203.001 313.346 202.924 311.229 202.736C306.139 202.285 301.102 201.212 296.239 199.548L295.86 178.173C300.661 176.343 305.657 175.099 310.726 174.472C312.837 174.212 314.963 174.062 317.046 174.026C323.895 173.909 331.07 175.452 338.386 178.606L338.724 197.656C331.525 201.059 324.409 202.848 317.559 202.965ZM341.966 196.02L341.684 180.129C347.506 183.015 351.906 186.203 354.031 187.865C351.965 189.6 347.682 192.937 341.966 196.02Z" fill="#EA4D4D"/>
<path d="M279.987 205.217C279.971 204.329 279.226 203.622 278.323 203.638L271.784 203.751C270.881 203.767 270.162 204.499 270.178 205.387C270.194 206.275 270.939 206.982 271.842 206.966L278.381 206.853C279.284 206.837 280.003 206.105 279.987 205.217Z" fill="#EA4D4D"/>
<path d="M279.417 173.066C279.401 172.178 278.656 171.471 277.753 171.486L271.214 171.597C270.311 171.612 269.592 172.345 269.607 173.232C269.623 174.12 270.367 174.827 271.27 174.812L277.81 174.701C278.713 174.686 279.432 173.953 279.417 173.066Z" fill="#EA4D4D"/>
<path d="M270.063 198.956C270.048 198.069 269.303 197.361 268.4 197.377L252.74 197.644C251.837 197.66 251.118 198.392 251.134 199.28C251.149 200.167 251.894 200.875 252.797 200.859L268.457 200.592C269.36 200.576 270.079 199.844 270.063 198.956Z" fill="#EA4D4D"/>
<path d="M260.654 190.021C260.639 189.133 259.894 188.426 258.991 188.441L243.331 188.709C242.428 188.724 241.709 189.457 241.724 190.344C241.74 191.232 242.485 191.94 243.388 191.924L259.048 191.656C259.951 191.641 260.67 190.909 260.654 190.021Z" fill="#EA4D4D"/>
<path d="M269.721 179.663C269.705 178.775 268.96 178.068 268.058 178.083L252.398 178.353C251.495 178.369 250.776 179.101 250.791 179.989C250.807 180.877 251.552 181.584 252.455 181.569L268.115 181.299C269.018 181.283 269.737 180.551 269.721 179.663Z" fill="#EA4D4D"/>
<path d="M312.398 188.58C312.382 187.692 311.638 186.985 310.734 187L307.465 187.057C306.563 187.072 305.843 187.804 305.859 188.692C305.875 189.58 306.619 190.287 307.522 190.272L310.792 190.216C311.694 190.2 312.414 189.468 312.398 188.58Z" fill="#EA4D4D"/>
</g>
<path d="M353.364 134.557H135.711M135.711 134.557L134.899 136.154L133.68 135.755L133.274 134.557L133.68 133.359H134.899L135.711 134.557Z" stroke="white"/>
<ellipse cx="134.087" cy="134.557" rx="2.43641" ry="2.79517" fill="white"/>
<path d="M353.364 154.523H135.711M135.711 154.523L134.899 156.12L133.68 155.72L133.274 154.523L133.68 153.325H134.899L135.711 154.523Z" stroke="white"/>
<ellipse cx="134.087" cy="154.522" rx="2.43641" ry="2.79517" fill="white"/>
<g clip-path="url(#clip1)">
<path d="M410.783 143.079C410.768 142.223 410.051 141.541 409.179 141.556C408.31 141.571 407.618 142.277 407.632 143.132C407.648 143.988 408.365 144.669 409.235 144.655C410.106 144.639 410.798 143.934 410.783 143.079Z" fill="#EA4D4D"/>
<path d="M439.14 142.591C439.064 138.31 435.479 134.906 431.125 134.98C426.783 135.055 423.311 138.59 423.386 142.862C423.463 147.132 427.057 150.547 431.4 150.473C435.753 150.398 439.216 146.873 439.14 142.591ZM431.345 147.374C428.74 147.419 426.583 145.37 426.536 142.808C426.492 140.245 428.575 138.123 431.18 138.079C433.792 138.034 435.944 140.077 435.989 142.645C436.035 145.214 433.958 147.329 431.345 147.374Z" fill="#EA4D4D"/>
<path d="M464.347 142.158C464.339 141.728 464.152 141.321 463.825 141.033C463.56 140.798 457.221 135.245 447.492 130.878C439.698 127.377 432.016 125.666 424.659 125.792C423.011 125.82 421.336 125.92 419.663 126.087C418.066 120.431 414.441 118.287 411.598 117.493C405.051 115.666 396.322 119.296 391.99 123.708C391.548 124.159 391.425 124.828 391.679 125.402C391.763 125.592 391.883 125.76 392.029 125.899C392.324 126.179 392.725 126.341 393.151 126.334C397.626 126.257 400.296 129.063 401.097 130.053L401.11 130.82C398.534 131.906 396.12 133.126 393.922 134.455C393.127 134.937 392.519 135.667 392.158 136.522C390.581 135.98 388.815 135.706 387.013 135.737C381.278 135.836 373.819 142.265 373.505 142.539C373.159 142.839 372.965 143.273 372.973 143.727C372.98 144.139 373.154 144.53 373.454 144.814C373.483 144.842 373.514 144.87 373.546 144.896C373.87 145.158 381.553 151.328 387.288 151.23C389.09 151.199 390.845 150.865 392.401 150.269C392.815 151.16 393.47 151.844 394.239 152.274C396.482 153.527 398.938 154.663 401.551 155.66L401.565 156.428C400.799 157.444 398.23 160.34 393.756 160.417C393.119 160.428 392.551 160.815 392.318 161.398C392.084 161.981 392.231 162.645 392.689 163.081C397.175 167.341 406.027 170.669 412.505 168.619C415.319 167.728 418.865 165.461 420.261 159.753C421.938 159.863 423.615 159.905 425.264 159.876C432.621 159.75 440.238 157.776 447.902 154.01C457.471 149.312 463.609 143.544 463.865 143.301C464.18 143.002 464.355 142.588 464.347 142.158ZM396.879 123.717C400.873 121.035 406.529 119.3 410.738 120.474C413.55 121.26 415.483 123.28 416.499 126.486C412.331 127.117 408.223 128.159 404.24 129.597C404.233 129.571 404.277 129.125 403.981 128.681C403.859 128.498 401.483 125.016 396.879 123.717ZM387.233 148.131C384.17 148.184 379.72 145.52 377.085 143.656C379.653 141.703 384.005 138.888 387.068 138.836C388.784 138.806 390.435 139.117 391.812 139.716L391.943 147.089C390.588 147.735 388.949 148.102 387.233 148.131ZM395.797 149.58C395.388 149.351 395.127 148.869 395.117 148.324C395.066 145.489 395.047 144.38 395.04 144.033C395.029 143.395 395.001 141.83 394.94 138.374C394.931 137.827 395.174 137.337 395.574 137.094C397.303 136.049 399.178 135.073 401.17 134.181L401.492 152.299C399.469 151.476 397.56 150.565 395.797 149.58ZM411.54 165.669C407.376 166.987 401.662 165.448 397.574 162.904C400.635 161.926 403.388 159.594 404.515 157.665C404.777 157.217 404.715 156.809 404.723 156.775C408.754 158.075 412.897 158.976 417.084 159.463C416.183 162.703 414.322 164.788 411.54 165.669ZM425.21 156.778C423.202 156.813 421.149 156.738 419.109 156.558C414.205 156.122 409.351 155.089 404.664 153.485L404.298 132.887C408.925 131.123 413.74 129.924 418.625 129.321C420.659 129.07 422.708 128.925 424.715 128.891C431.315 128.777 438.229 130.265 445.28 133.304L445.605 151.662C438.668 154.941 431.81 156.665 425.21 156.778ZM448.729 150.086L448.458 134.772C454.068 137.553 458.308 140.625 460.357 142.227C458.366 143.899 454.238 147.115 448.729 150.086Z" fill="#EA4D4D"/>
<path d="M389.002 158.948C388.987 158.092 388.269 157.411 387.399 157.426L381.097 157.535C380.227 157.551 379.534 158.256 379.55 159.112C379.565 159.968 380.283 160.649 381.153 160.634L387.455 160.525C388.325 160.51 389.018 159.804 389.002 158.948Z" fill="#EA4D4D"/>
<path d="M388.453 127.965C388.438 127.109 387.72 126.428 386.85 126.443L380.548 126.55C379.678 126.564 378.985 127.27 379 128.126C379.015 128.981 379.732 129.663 380.602 129.648L386.904 129.541C387.774 129.526 388.468 128.821 388.453 127.965Z" fill="#EA4D4D"/>
<path d="M379.439 152.915C379.424 152.06 378.706 151.378 377.836 151.393L362.745 151.651C361.875 151.665 361.182 152.371 361.197 153.227C361.212 154.082 361.93 154.764 362.8 154.749L377.891 154.491C378.761 154.476 379.454 153.77 379.439 152.915Z" fill="#EA4D4D"/>
<path d="M370.372 144.304C370.357 143.449 369.639 142.767 368.769 142.782L353.678 143.04C352.808 143.055 352.114 143.76 352.13 144.616C352.145 145.471 352.862 146.153 353.732 146.138L368.824 145.88C369.694 145.866 370.387 145.16 370.372 144.304Z" fill="#EA4D4D"/>
<path d="M379.109 134.323C379.094 133.467 378.376 132.786 377.506 132.801L362.415 133.061C361.545 133.076 360.852 133.781 360.867 134.637C360.882 135.493 361.6 136.174 362.47 136.159L377.561 135.899C378.431 135.884 379.124 135.178 379.109 134.323Z" fill="#EA4D4D"/>
<path d="M420.236 142.916C420.22 142.06 419.503 141.379 418.633 141.393L415.482 141.448C414.612 141.462 413.919 142.168 413.934 143.024C413.95 143.88 414.667 144.561 415.537 144.546L418.688 144.492C419.558 144.477 420.251 143.771 420.236 142.916Z" fill="#EA4D4D"/>
</g>
<path d="M345.242 144.939H127.589M127.589 144.939L126.777 146.536L125.559 146.137L125.153 144.939L125.559 143.741H126.777L127.589 144.939Z" stroke="white"/>
<ellipse cx="125.965" cy="144.939" rx="2.43641" ry="2.79517" fill="#6C63FF"/>
<g clip-path="url(#clip2)">
<path d="M235.957 93.0849C235.932 91.662 234.74 90.5303 233.293 90.5551C231.85 90.5799 230.699 91.7518 230.722 93.1729C230.749 94.594 231.941 95.7257 233.386 95.7027C234.831 95.6761 235.982 94.5041 235.957 93.0849Z" fill="#EA4D4D"/>
<path d="M283.059 92.2745C282.932 85.1637 276.977 79.5083 269.746 79.6322C262.533 79.756 256.766 85.6283 256.89 92.7244C257.018 99.8171 262.989 105.49 270.203 105.366C277.433 105.242 283.185 99.3859 283.059 92.2745ZM270.112 100.219C265.784 100.293 262.201 96.8905 262.124 92.6343C262.05 88.377 265.51 84.853 269.837 84.7789C274.176 84.7044 277.749 88.0974 277.825 92.3643C277.901 96.6303 274.451 100.145 270.112 100.219Z" fill="#EA4D4D"/>
<path d="M324.929 91.555C324.916 90.8404 324.605 90.1643 324.061 89.6857C323.621 89.2964 313.092 80.0723 296.932 72.8187C283.985 67.0028 271.225 64.1603 259.006 64.3703C256.267 64.4173 253.485 64.5826 250.706 64.86C248.054 55.4652 242.033 51.9035 237.31 50.5852C226.435 47.5501 211.937 53.5806 204.741 60.9082C204.006 61.6575 203.802 62.7683 204.224 63.7227C204.364 64.0388 204.563 64.3173 204.806 64.5476C205.296 65.013 205.962 65.2818 206.67 65.2699C214.102 65.1423 218.537 69.8034 219.867 71.4471L219.89 72.7216C215.611 74.5256 211.601 76.5522 207.95 78.7606C206.63 79.5605 205.619 80.7736 205.02 82.1929C202.401 81.293 199.468 80.8385 196.474 80.8898C186.948 81.0535 174.559 91.7333 174.036 92.1878C173.462 92.6867 173.139 93.4076 173.153 94.1605C173.165 94.8456 173.454 95.4948 173.951 95.9668C174 96.0136 174.052 96.0588 174.105 96.1019C174.643 96.5384 187.405 106.787 196.931 106.623C199.923 106.572 202.838 106.017 205.424 105.028C206.11 106.508 207.198 107.643 208.477 108.358C212.202 110.439 216.281 112.327 220.622 113.983L220.645 115.257C219.373 116.946 215.106 121.756 207.675 121.884C206.616 121.902 205.673 122.545 205.285 123.514C204.897 124.482 205.141 125.585 205.902 126.308C213.354 133.384 228.057 138.913 238.818 135.507C243.491 134.028 249.381 130.261 251.699 120.781C254.485 120.963 257.271 121.033 260.011 120.986C272.231 120.776 284.882 117.497 297.613 111.241C313.507 103.437 323.702 93.8569 324.128 93.4529C324.652 92.9571 324.941 92.2695 324.929 91.555ZM212.861 60.9234C219.496 56.4683 228.891 53.5866 235.881 55.5376C240.553 56.8416 243.763 60.1973 245.451 65.523C238.528 66.571 231.705 68.3024 225.089 70.6908C225.078 70.6471 225.15 69.9063 224.658 69.1689C224.455 68.8655 220.509 63.0815 212.861 60.9234ZM196.84 101.477C191.751 101.564 184.36 97.1399 179.984 94.0433C184.248 90.7983 191.478 86.1237 196.566 86.0363C199.415 85.9874 202.158 86.5028 204.445 87.4985L204.662 99.745C202.412 100.819 199.69 101.428 196.84 101.477ZM211.064 103.883C210.384 103.503 209.951 102.702 209.934 101.796C209.851 97.0881 209.818 95.2463 209.808 94.6686C209.789 93.6089 209.743 91.0101 209.641 85.2699C209.626 84.3613 210.03 83.5464 210.695 83.1437C213.565 81.407 216.681 79.7865 219.989 78.3051L220.523 108.399C217.164 107.032 213.994 105.52 211.064 103.883ZM237.214 130.608C230.297 132.797 220.806 130.24 214.017 126.015C219.101 124.39 223.673 120.516 225.545 117.313C225.98 116.569 225.878 115.89 225.891 115.834C232.587 117.993 239.467 119.489 246.423 120.3C244.925 125.68 241.836 129.144 237.214 130.608ZM259.92 115.84C256.585 115.897 253.176 115.774 249.786 115.473C241.64 114.75 233.578 113.034 225.793 110.37L225.186 76.155C232.871 73.2255 240.868 71.2335 248.982 70.2313C252.362 69.8149 255.765 69.5745 259.098 69.5175C270.061 69.3291 281.546 71.7996 293.257 76.8479L293.798 107.341C282.274 112.788 270.884 115.652 259.92 115.84ZM298.987 104.723L298.536 79.2865C307.856 83.905 314.898 89.0079 318.301 91.6695C314.994 94.4466 308.137 99.788 298.987 104.723Z" fill="#EA4D4D"/>
<path d="M199.778 119.444C199.753 118.022 198.56 116.891 197.115 116.916L186.648 117.097C185.203 117.122 184.052 118.295 184.077 119.716C184.103 121.137 185.295 122.269 186.74 122.244L197.208 122.062C198.653 122.037 199.804 120.865 199.778 119.444Z" fill="#EA4D4D"/>
<path d="M198.865 67.9795C198.84 66.5584 197.648 65.4265 196.203 65.4508L185.735 65.6287C184.29 65.6531 183.139 66.8252 183.164 68.2463C183.189 69.6668 184.38 70.7995 185.826 70.775L196.293 70.5972C197.738 70.5727 198.89 69.4006 198.865 67.9795Z" fill="#EA4D4D"/>
<path d="M183.894 109.422C183.869 108.002 182.676 106.869 181.231 106.894L156.164 107.322C154.719 107.347 153.568 108.519 153.593 109.94C153.618 111.361 154.81 112.494 156.255 112.469L181.322 112.04C182.768 112.016 183.919 110.843 183.894 109.422Z" fill="#EA4D4D"/>
<path d="M168.832 95.1197C168.807 93.6988 167.615 92.5666 166.17 92.5912L141.103 93.0196C139.657 93.0443 138.506 94.2166 138.531 95.6376C138.556 97.0584 139.748 98.191 141.194 98.1662L166.261 97.7377C167.706 97.7131 168.857 96.5408 168.832 95.1197Z" fill="#EA4D4D"/>
<path d="M183.346 78.5397C183.32 77.119 182.128 75.9867 180.683 76.0116L155.616 76.4436C154.17 76.4686 153.019 77.6407 153.045 79.0622C153.07 80.4833 154.262 81.6153 155.707 81.5903L180.774 81.1582C182.22 81.1333 183.371 79.9612 183.346 78.5397Z" fill="#EA4D4D"/>
<path d="M251.658 92.8132C251.633 91.392 250.441 90.2603 248.995 90.2847L243.763 90.3745C242.317 90.3993 241.166 91.5716 241.191 92.9929C241.217 94.4142 242.409 95.546 243.854 95.5214L249.087 95.4316C250.532 95.4068 251.683 94.2345 251.658 92.8132Z" fill="#EA4D4D"/>
</g>
<path d="M145.457 107.778H14.1804M14.1804 107.778L13.6906 110.074L12.9559 109.5L12.7109 107.778L12.9559 106.056H13.6906L14.1804 107.778Z" stroke="white"/>
<ellipse cx="12.1215" cy="107.803" rx="3.63641" ry="3.9931" fill="#6C63FF"/>
<path d="M140.558 79.0777H9.28177M9.28177 79.0777L8.79193 81.3738L8.05717 80.7998L7.81226 79.0777L8.05717 77.3557H8.79193L9.28177 79.0777Z" stroke="white"/>
<ellipse cx="7.87896" cy="79.0528" rx="4.24248" ry="3.9931" fill="#6C63FF"/>
<path d="M136.149 94.0021H4.87332M4.87332 94.0021L4.38348 96.2981L3.64873 95.7241L3.40381 94.0021L3.64873 92.28H4.38348L4.87332 94.0021Z" stroke="white"/>
<ellipse cx="3.63641" cy="94.2266" rx="3.63641" ry="3.9931" fill="white"/>
<path d="M244.537 200.842H72.353M72.353 200.842L71.7105 202.44L70.7468 202.04L70.4255 200.842L70.7468 199.645H71.7105L72.353 200.842Z" stroke="white"/>
<ellipse cx="71.0681" cy="200.842" rx="1.92744" ry="2.79517" fill="#EA4D4D"/>
<path d="M238.112 180.877H65.9282M65.9282 180.877L65.2857 182.474L64.322 182.075L64.0007 180.877L64.322 179.679H65.2857L65.9282 180.877Z" stroke="white"/>
<ellipse cx="64.6433" cy="180.877" rx="1.92744" ry="2.79517" fill="#6C63FF"/>
<path d="M232.33 191.259H60.1459M60.1459 191.259L59.5035 192.856L58.5397 192.457L58.2185 191.259L58.5397 190.061H59.5035L60.1459 191.259Z" stroke="white"/>
<ellipse cx="58.861" cy="191.259" rx="1.92744" ry="2.79517" fill="white"/>
<defs>
<clipPath id="clip0">
<rect width="83.0458" height="82.9972" fill="white" transform="matrix(0.725138 0.688603 -0.700668 0.713487 298.63 130.597)"/>
</clipPath>
<clipPath id="clip1">
<rect width="80.0289" height="79.982" fill="white" transform="matrix(0.725138 0.688603 -0.700668 0.713487 406.968 87.0391)"/>
</clipPath>
<clipPath id="clip2">
<rect width="132.931" height="132.853" fill="white" transform="matrix(0.725138 0.688603 -0.700668 0.713487 229.62 0)"/>
</clipPath>
</defs>
</svg>
