<svg width="374" height="379" viewBox="0 0 374 379" fill="none" xmlns="http://www.w3.org/2000/svg">
<path d="M-8.99997 0H219.462C221.218 10.5537 222.098 21.2309 222.094 31.9257C222.094 139.888 133.347 227.409 23.8712 227.409C12.858 227.413 1.86342 226.517 -8.99997 224.732V0Z" fill="#3F3D56"/>
<path d="M87.6974 122.206C91.1262 122.209 94.5276 121.603 97.7391 120.419C97.9228 120.351 98.0912 120.248 98.2346 120.116C98.378 119.984 98.4936 119.825 98.5748 119.649C98.656 119.473 98.7013 119.283 98.708 119.089C98.7147 118.896 98.6827 118.703 98.6138 118.522C98.545 118.341 98.4406 118.175 98.3067 118.033C98.1728 117.892 98.0119 117.778 97.8333 117.698C97.6547 117.618 97.4618 117.573 97.2657 117.566C97.0697 117.56 96.8742 117.591 96.6905 117.659C92.4328 119.211 87.8382 119.641 83.3606 118.906C78.883 118.171 74.6773 116.297 71.1586 113.469C82.1347 113.584 92.8709 108.469 98.2123 100.261C101.646 94.9839 102.769 88.7748 101.46 82.3043C100.458 77.6121 98.4001 73.2017 95.439 69.3983C101.093 71.1723 105.958 74.8051 109.223 79.6902C112.489 84.5753 113.956 90.417 113.38 96.2404C113.36 96.4333 113.379 96.6282 113.436 96.8139C113.492 96.9997 113.585 97.1726 113.71 97.3228C113.834 97.4729 113.987 97.5974 114.161 97.6891C114.334 97.7808 114.524 97.8378 114.719 97.8569C114.915 97.8761 115.113 97.8569 115.301 97.8006C115.489 97.7442 115.664 97.6518 115.816 97.5286C115.968 97.4055 116.093 97.2539 116.186 97.0827C116.278 96.9115 116.335 96.7241 116.354 96.531C117.08 89.2045 114.904 81.8851 110.282 76.1049C105.659 70.3247 98.949 66.5318 91.5553 65.5201C91.2462 65.4776 90.9313 65.5317 90.655 65.6748C90.3786 65.8179 90.1546 66.0427 90.0145 66.3177C89.8743 66.5927 89.825 66.9042 89.8735 67.2082C89.922 67.5123 90.0659 67.7937 90.2849 68.013C97.9268 75.6681 102.564 88.1158 95.6978 98.6691C90.28 106.994 78.6231 111.755 67.3445 110.25C67.0419 110.21 66.7341 110.262 66.4624 110.399C66.1907 110.537 65.9683 110.753 65.8249 111.019C65.6816 111.285 65.6243 111.588 65.6607 111.887C65.6972 112.185 65.8257 112.466 66.0288 112.691C68.7598 115.69 72.1011 118.087 75.8347 119.726C79.5683 121.366 83.6104 122.211 87.6974 122.206Z" fill="#CD4A4A"/>
<path d="M111.528 122.791C113.695 122.791 115.813 122.157 117.615 120.97C119.417 119.783 120.821 118.095 121.651 116.121C122.48 114.146 122.697 111.973 122.274 109.877C121.852 107.781 120.808 105.856 119.276 104.345C117.743 102.834 115.791 101.804 113.665 101.387C111.54 100.971 109.337 101.184 107.335 102.002C105.333 102.82 103.621 104.205 102.417 105.982C101.213 107.759 100.571 109.848 100.571 111.985C100.574 114.85 101.729 117.597 103.784 119.623C105.838 121.648 108.623 122.788 111.528 122.791ZM111.528 104.127C113.104 104.127 114.645 104.588 115.955 105.451C117.265 106.315 118.287 107.542 118.89 108.978C119.493 110.414 119.651 111.994 119.343 113.519C119.036 115.043 118.277 116.443 117.163 117.542C116.048 118.641 114.628 119.39 113.082 119.693C111.537 119.996 109.934 119.841 108.478 119.246C107.022 118.651 105.778 117.644 104.902 116.351C104.026 115.059 103.559 113.54 103.559 111.985C103.561 109.902 104.402 107.904 105.896 106.431C107.39 104.958 109.415 104.129 111.528 104.127Z" fill="#CD4A4A"/>
<path d="M369.672 278.529C370.391 278.418 371.079 278.157 371.688 277.762C372.297 277.368 372.814 276.851 373.204 276.244C373.594 275.637 373.848 274.955 373.95 274.243C374.051 273.532 373.997 272.807 373.791 272.118L369.912 259.112L364.018 260.202L363.765 273.447C363.751 274.183 363.9 274.914 364.203 275.588C364.506 276.261 364.954 276.861 365.517 277.345C366.08 277.83 366.744 278.187 367.461 278.391C368.179 278.595 368.934 278.642 369.672 278.529Z" fill="#9F616A"/>
<path d="M335.652 361.562L343.02 360.472L341.178 289.629L351.493 320.146L357.019 363.015L364.018 361.199L365.492 316.513L357.387 263.835L316.864 272.917L335.652 361.562Z" fill="#3F3D56"/>
<path d="M339.035 379C340.471 379 341.848 378.437 342.864 377.436C343.879 376.434 344.45 375.076 344.45 373.66C344.45 373.485 344.441 373.311 344.424 373.137L343.28 361.666C343.252 361.392 343.157 361.129 343.002 360.899C342.847 360.67 342.637 360.481 342.392 360.351C340.22 359.195 337.986 359.476 335.7 360.983C335.498 361.118 335.327 361.294 335.199 361.5C335.072 361.706 334.992 361.937 334.963 362.176L333.657 373.03C333.567 373.78 333.639 374.539 333.868 375.259C334.097 375.979 334.478 376.642 334.986 377.206C335.494 377.77 336.118 378.222 336.816 378.531C337.513 378.84 338.27 379 339.035 379H339.035Z" fill="#3F3D56"/>
<path d="M369.109 378.146C369.803 377.895 370.43 377.492 370.943 376.966C371.456 376.441 371.841 375.807 372.07 375.114C372.298 374.42 372.363 373.684 372.26 372.962C372.157 372.24 371.89 371.55 371.477 370.945L363.618 359.424C360.784 357.419 359.076 358.395 358.411 362.142L356.822 358.216L355.625 359.504C355.018 360.157 354.664 361.001 354.627 361.887C354.59 362.773 354.873 363.643 355.424 364.344L363.576 376.579C364.21 377.385 365.088 377.971 366.083 378.253C367.077 378.535 368.137 378.497 369.109 378.146Z" fill="#3F3D56"/>
<path d="M319.443 195.535C313.339 195.535 308.391 190.655 308.391 184.636C308.391 178.616 313.339 173.737 319.443 173.737C325.547 173.737 330.495 178.616 330.495 184.636C330.495 190.655 325.547 195.535 319.443 195.535Z" fill="#9F616A"/>
<path d="M312.444 204.617L331.231 200.984C328.811 195.894 326.873 194.172 329.021 188.632H313.917C315.249 194.37 313.962 199.756 312.444 204.617Z" fill="#9F616A"/>
<path d="M314.654 278.003L358.861 265.651C350.006 246.432 348.151 225.331 350.777 203.026C350.839 202.499 350.796 201.966 350.649 201.456C350.502 200.946 350.255 200.47 349.922 200.054C349.589 199.638 349.176 199.291 348.706 199.033C348.237 198.774 347.721 198.61 347.187 198.548C347.137 198.543 347.088 198.538 347.038 198.534C341.271 198.065 335.26 197.464 329.021 196.625L322.022 201.347L313.917 199.531C311.316 200.774 308.697 201.808 306.333 202.839C304.178 203.78 302.456 205.48 301.503 207.607C300.55 209.733 300.434 212.133 301.178 214.339C308.381 235.791 313.203 257.041 314.654 278.003Z" fill="#E6E6E6"/>
<path d="M362.913 261.655L371.386 260.565L351.314 203.529C350.293 200.627 347.76 199.057 344.678 198.623L341.731 198.986L343.941 232.773L362.913 261.655Z" fill="#E6E6E6"/>
<path d="M296.541 250.751C297.952 250.858 299.361 250.523 300.567 249.793C301.774 249.064 302.715 247.977 303.258 246.689L311.338 227.505L304.707 203.891L302.954 204.991C302.786 205.097 302.619 205.205 302.454 205.316C299.994 207.017 298.077 209.375 296.929 212.113C295.782 214.852 295.452 217.857 295.979 220.774L297.708 230.775L290.574 245.879C290.937 247.2 291.705 248.377 292.774 249.249C293.842 250.122 295.158 250.646 296.541 250.751Z" fill="#E6E6E6"/>
<path d="M318.593 168.482C316.705 168.568 314.865 169.102 313.231 170.039C312.855 170.255 313.029 171.033 312.682 171.286C312.244 171.606 311.295 171.412 310.907 171.786C309.657 172.99 308.694 174.453 308.089 176.069C307.484 177.686 307.252 179.415 307.41 181.131L308.026 187.178L309.481 185.609C312.09 182.757 315.711 181.003 319.594 180.712C319.759 180.701 319.925 180.693 320.09 180.686L318.971 178.755L320.916 180.673C321.803 180.683 322.689 180.754 323.566 180.886L322.078 178.317L324.934 181.134L324.934 181.134C326.102 181.387 327.193 181.907 328.12 182.653C329.047 183.398 329.783 184.348 330.269 185.425L330.586 186.118L330.942 180.35C331.01 177.267 329.833 174.283 327.67 172.056C325.508 169.828 322.536 168.539 319.41 168.472C319.138 168.466 318.865 168.47 318.593 168.482Z" fill="#3F3D56"/>
<path d="M308.319 188.822C307.829 188.822 307.431 187.891 307.431 186.743C307.431 185.595 307.829 184.664 308.319 184.664C308.809 184.664 309.207 185.595 309.207 186.743C309.207 187.891 308.809 188.822 308.319 188.822Z" fill="#9F616A"/>
<path d="M330.511 188.165C330.021 188.165 329.623 187.235 329.623 186.086C329.623 184.938 330.021 184.007 330.511 184.007C331.001 184.007 331.398 184.938 331.398 186.086C331.398 187.235 331.001 188.165 330.511 188.165Z" fill="#9F616A"/>
<path d="M287.323 213.862C286.615 214.033 285.952 214.351 285.379 214.794C284.806 215.238 284.336 215.797 283.999 216.434C283.663 217.072 283.469 217.773 283.429 218.49C283.389 219.207 283.505 219.925 283.77 220.595L288.754 233.229L294.533 231.65L293.646 218.431C293.596 217.696 293.384 216.98 293.025 216.335C292.665 215.689 292.166 215.129 291.564 214.693C290.961 214.258 290.269 213.958 289.537 213.814C288.804 213.671 288.048 213.687 287.323 213.862H287.323Z" fill="#9F616A"/>
<path d="M294.024 250.029L303.234 244.217L295.498 228.595L285.92 232.228L290.708 246.033L294.024 250.029Z" fill="#E6E6E6"/>
<path d="M287.837 200.936V139.491H288.833V200.936C289.438 201.057 289.975 201.396 290.341 201.886C290.706 202.377 290.875 202.983 290.813 203.589C290.751 204.194 290.463 204.755 290.005 205.164C289.547 205.572 288.952 205.798 288.335 205.798C287.718 205.798 287.123 205.572 286.665 205.164C286.207 204.755 285.919 204.194 285.857 203.589C285.795 202.983 285.963 202.377 286.329 201.886C286.695 201.396 287.232 201.057 287.837 200.936ZM288.335 204.815C288.63 204.815 288.919 204.729 289.165 204.567C289.411 204.405 289.602 204.175 289.715 203.906C289.828 203.636 289.858 203.34 289.8 203.054C289.743 202.769 289.6 202.506 289.391 202.3C289.183 202.094 288.916 201.954 288.626 201.897C288.337 201.84 288.036 201.869 287.763 201.981C287.49 202.092 287.257 202.281 287.093 202.523C286.928 202.766 286.841 203.05 286.841 203.342C286.841 203.732 286.999 204.107 287.279 204.383C287.559 204.66 287.939 204.815 288.335 204.815Z" fill="#3F3D56"/>
<path d="M289.115 80.8305C289.685 80.8305 290.232 80.6072 290.635 80.2099C291.038 79.8125 291.264 79.2736 291.264 78.7117V72.3553C291.263 71.7939 291.036 71.2558 290.633 70.8591C290.231 70.4625 289.685 70.2397 289.115 70.2397C288.546 70.2397 288 70.4625 287.597 70.8591C287.195 71.2558 286.968 71.7939 286.967 72.3553V78.7117C286.967 78.9899 287.022 79.2654 287.13 79.5225C287.238 79.7796 287.397 80.0132 287.596 80.2099C287.796 80.4066 288.033 80.5627 288.293 80.6692C288.554 80.7757 288.833 80.8305 289.115 80.8305Z" fill="#CD4A4A"/>
<path d="M289.115 129.563C289.398 129.563 289.677 129.508 289.938 129.402C290.198 129.295 290.435 129.139 290.635 128.942C290.834 128.746 290.992 128.512 291.1 128.255C291.208 127.998 291.264 127.722 291.264 127.444V121.088C291.264 120.809 291.209 120.533 291.101 120.276C290.994 120.018 290.835 119.785 290.636 119.587C290.436 119.39 290.199 119.234 289.938 119.127C289.677 119.021 289.398 118.966 289.115 118.966C288.833 118.966 288.553 119.021 288.292 119.127C288.032 119.234 287.795 119.39 287.595 119.587C287.396 119.785 287.237 120.018 287.13 120.276C287.022 120.533 286.967 120.809 286.967 121.088V127.444C286.967 127.722 287.022 127.998 287.13 128.255C287.238 128.512 287.397 128.746 287.596 128.942C287.796 129.139 288.033 129.295 288.293 129.402C288.554 129.508 288.833 129.563 289.115 129.563Z" fill="#CD4A4A"/>
<path d="M273.923 87.0358C274.348 87.0358 274.763 86.9115 275.116 86.6787C275.47 86.4459 275.745 86.115 275.908 85.7278C276.07 85.3407 276.113 84.9147 276.03 84.5037C275.947 84.0927 275.742 83.7151 275.442 83.4188L270.884 78.9243C270.481 78.5273 269.935 78.3045 269.365 78.3046C268.796 78.3048 268.25 78.528 267.847 78.9252C267.444 79.3225 267.218 79.8611 267.218 80.4229C267.217 80.9846 267.444 81.5234 267.846 81.9208L272.404 86.4153C272.603 86.6123 272.84 86.7686 273.1 86.8751C273.361 86.9815 273.641 87.0362 273.923 87.0358Z" fill="#CD4A4A"/>
<path d="M308.865 121.496C309.29 121.496 309.706 121.371 310.059 121.138C310.412 120.906 310.688 120.575 310.85 120.188C311.013 119.8 311.056 119.374 310.973 118.963C310.89 118.552 310.685 118.175 310.385 117.879L305.827 113.384C305.424 112.987 304.878 112.763 304.308 112.763C303.738 112.763 303.192 112.987 302.789 113.384C302.386 113.781 302.159 114.32 302.159 114.882C302.159 115.444 302.386 115.983 302.789 116.38L307.346 120.875C307.546 121.072 307.782 121.228 308.043 121.335C308.304 121.441 308.583 121.496 308.865 121.496Z" fill="#CD4A4A"/>
<path d="M261.185 102.018H267.63C268.2 102.018 268.745 101.794 269.148 101.397C269.55 100.999 269.776 100.461 269.776 99.8997C269.776 99.3383 269.55 98.7999 269.148 98.4026C268.745 98.0053 268.2 97.7817 267.63 97.7809H261.185C260.902 97.7805 260.623 97.8349 260.362 97.9412C260.101 98.0475 259.863 98.2035 259.664 98.4003C259.464 98.5971 259.305 98.8308 259.197 99.0881C259.089 99.3454 259.033 99.6212 259.033 99.8997C259.033 100.178 259.089 100.454 259.197 100.711C259.305 100.969 259.464 101.202 259.664 101.399C259.863 101.596 260.101 101.752 260.362 101.858C260.623 101.964 260.902 102.019 261.185 102.018Z" fill="#CD4A4A"/>
<path d="M310.6 102.018H317.046C317.328 102.019 317.608 101.964 317.869 101.858C318.13 101.752 318.367 101.596 318.567 101.399C318.767 101.202 318.925 100.969 319.034 100.711C319.142 100.454 319.198 100.178 319.198 99.8997C319.198 99.6212 319.142 99.3454 319.034 99.0881C318.925 98.8308 318.767 98.5971 318.567 98.4003C318.367 98.2035 318.13 98.0475 317.869 97.9412C317.608 97.8349 317.328 97.7805 317.046 97.7809H310.6C310.031 97.7817 309.485 98.0053 309.083 98.4026C308.681 98.7999 308.455 99.3383 308.455 99.8997C308.455 100.461 308.681 100.999 309.083 101.397C309.485 101.794 310.031 102.018 310.6 102.018H310.6Z" fill="#CD4A4A"/>
<path d="M269.365 121.496C269.647 121.496 269.927 121.441 270.188 121.335C270.448 121.228 270.685 121.072 270.884 120.875L275.442 116.38C275.642 116.184 275.801 115.95 275.909 115.693C276.017 115.436 276.073 115.16 276.073 114.882C276.073 114.603 276.018 114.328 275.91 114.07C275.802 113.813 275.643 113.579 275.444 113.382C275.244 113.186 275.007 113.029 274.746 112.923C274.485 112.816 274.206 112.762 273.923 112.762C273.641 112.762 273.361 112.817 273.101 112.924C272.84 113.031 272.603 113.187 272.404 113.384L267.846 117.879C267.546 118.175 267.341 118.552 267.258 118.963C267.175 119.374 267.218 119.8 267.38 120.188C267.543 120.575 267.818 120.906 268.172 121.139C268.525 121.371 268.94 121.496 269.365 121.496V121.496Z" fill="#CD4A4A"/>
<path d="M304.308 87.0359C304.59 87.0362 304.87 86.9816 305.13 86.8751C305.391 86.7686 305.628 86.6123 305.827 86.4153L310.385 81.9208C310.584 81.7241 310.742 81.4905 310.85 81.2334C310.958 80.9763 311.014 80.7008 311.014 80.4226C311.014 80.1443 310.958 79.8688 310.85 79.6117C310.742 79.3546 310.584 79.1211 310.385 78.9243C310.185 78.7276 309.948 78.5715 309.688 78.465C309.427 78.3585 309.148 78.3037 308.865 78.3037C308.583 78.3037 308.304 78.3585 308.043 78.465C307.782 78.5715 307.546 78.7276 307.346 78.9243L302.789 83.4189C302.488 83.7152 302.284 84.0927 302.201 84.5037C302.118 84.9147 302.16 85.3407 302.323 85.7279C302.486 86.115 302.761 86.4459 303.114 86.6788C303.468 86.9116 303.883 87.0359 304.308 87.0359Z" fill="#CD4A4A"/>
<path d="M289.115 112.613C291.665 112.613 294.157 111.867 296.277 110.47C298.397 109.073 300.049 107.088 301.025 104.765C302.001 102.442 302.256 99.8856 301.759 97.4195C301.261 94.9535 300.033 92.6883 298.231 90.9104C296.428 89.1324 294.131 87.9217 291.63 87.4311C289.13 86.9406 286.538 87.1924 284.182 88.1546C281.827 89.1168 279.813 90.7462 278.397 92.8368C276.98 94.9274 276.224 97.3853 276.224 99.8997C276.228 103.27 277.588 106.502 280.004 108.885C282.421 111.268 285.698 112.609 289.115 112.613ZM289.115 91.4245C290.815 91.4245 292.477 91.9215 293.89 92.8528C295.303 93.7841 296.405 95.1077 297.055 96.6564C297.706 98.205 297.876 99.9091 297.544 101.553C297.213 103.197 296.394 104.707 295.192 105.893C293.99 107.078 292.459 107.885 290.792 108.212C289.125 108.539 287.397 108.371 285.827 107.73C284.256 107.088 282.914 106.002 281.97 104.608C281.025 103.215 280.521 101.576 280.521 99.8997C280.524 97.6527 281.43 95.4985 283.041 93.9096C284.652 92.3208 286.837 91.427 289.115 91.4245Z" fill="#CD4A4A"/>
</svg>
