<svg width="366" height="143" viewBox="0 0 366 143" fill="none" xmlns="http://www.w3.org/2000/svg">
<g clip-path="url(#clip0)">
<path d="M247.318 8.22103C238.489 8.04207 227.844 10.5851 218.112 15.1978L154.609 45.2987C152.86 44.271 151.072 43.5825 149.311 43.2782L195.19 21.5309C159.557 29.852 146.935 5.88211 119.504 18.8846L119.504 18.8849L132.157 49.1429L128.601 50.8288L115.947 20.5708C110.054 23.3641 108.11 32.402 111.604 40.7575L117.931 55.8865C112.774 58.3307 111.809 61.6298 113.19 64.9317L117.144 74.3873C118.527 77.6928 121.477 79.1315 126.63 76.6889L128.212 80.4712C123.055 82.9154 122.09 86.2144 123.471 89.5163L127.425 98.972C128.808 102.277 131.758 103.716 136.911 101.274L143.238 116.403C146.733 124.758 154.342 129.267 160.235 126.474L147.582 96.2159L151.138 94.53L163.792 124.788L163.793 124.788C191.224 111.785 182.938 85.7599 212.589 63.1357L166.709 84.8831C167.676 83.2859 168.392 81.4104 168.844 79.3391L232.348 49.2381C242.079 44.6254 250.977 37.9049 256.761 30.7992C261.983 24.3837 264.156 18.2964 262.575 14.5161C260.994 10.7357 255.291 8.38235 247.318 8.22103ZM232.741 39.9877C232.269 40.2113 231.734 40.2264 231.252 40.0299C230.77 39.8333 230.382 39.4411 230.172 38.9395L223.845 23.8105C223.635 23.309 223.621 22.7391 223.807 22.2264C223.992 21.7136 224.361 21.3 224.832 21.0764C231.926 17.7142 239.842 36.622 232.741 39.9877Z" fill="#636363"/>
</g>
<path d="M21.504 27.2539C21.36 27.5259 21.152 27.6619 20.88 27.6619C20.672 27.6619 20.4 27.5179 20.064 27.2299C19.744 26.9259 19.304 26.5979 18.744 26.2459C18.184 25.8779 17.48 25.5419 16.632 25.2379C15.8 24.9339 14.768 24.7819 13.536 24.7819C12.304 24.7819 11.216 24.9579 10.272 25.3099C9.344 25.6619 8.56 26.1419 7.92 26.7499C7.296 27.3579 6.816 28.0619 6.48 28.8619C6.16 29.6619 6 30.5019 6 31.3819C6 32.5339 6.24 33.4859 6.72 34.2379C7.216 34.9899 7.864 35.6299 8.664 36.1579C9.464 36.6859 10.368 37.1339 11.376 37.5019C12.4 37.8539 13.448 38.2059 14.52 38.5579C15.592 38.9099 16.632 39.3019 17.64 39.7339C18.664 40.1499 19.576 40.6779 20.376 41.3179C21.176 41.9579 21.816 42.7499 22.296 43.6939C22.792 44.6219 23.04 45.7819 23.04 47.1739C23.04 48.5979 22.792 49.9419 22.296 51.2059C21.816 52.4539 21.112 53.5419 20.184 54.4699C19.256 55.3979 18.12 56.1339 16.776 56.6779C15.432 57.2059 13.896 57.4699 12.168 57.4699C9.928 57.4699 8 57.0779 6.384 56.2939C4.768 55.4939 3.352 54.4059 2.136 53.0299L2.808 51.9739C3 51.7339 3.224 51.6139 3.48 51.6139C3.624 51.6139 3.808 51.7099 4.032 51.9019C4.256 52.0939 4.528 52.3339 4.848 52.6219C5.168 52.8939 5.552 53.1979 6 53.5339C6.448 53.8539 6.968 54.1579 7.56 54.4459C8.152 54.7179 8.832 54.9499 9.6 55.1419C10.368 55.3339 11.24 55.4299 12.216 55.4299C13.56 55.4299 14.76 55.2299 15.816 54.8299C16.872 54.4139 17.76 53.8539 18.48 53.1499C19.216 52.4459 19.776 51.6139 20.16 50.6539C20.544 49.6779 20.736 48.6379 20.736 47.5339C20.736 46.3339 20.488 45.3499 19.992 44.5819C19.512 43.7979 18.872 43.1499 18.072 42.6379C17.272 42.1099 16.36 41.6699 15.336 41.3179C14.328 40.9659 13.288 40.6219 12.216 40.2859C11.144 39.9499 10.096 39.5739 9.072 39.1579C8.064 38.7419 7.16 38.2139 6.36 37.5739C5.56 36.9179 4.912 36.1099 4.416 35.1499C3.936 34.1739 3.696 32.9579 3.696 31.5019C3.696 30.3659 3.912 29.2699 4.344 28.2139C4.776 27.1579 5.408 26.2299 6.24 25.4299C7.072 24.6139 8.096 23.9659 9.312 23.4859C10.544 22.9899 11.944 22.7419 13.512 22.7419C15.272 22.7419 16.848 23.0219 18.24 23.5819C19.648 24.1419 20.928 24.9979 22.08 26.1499L21.504 27.2539ZM31.3181 51.8779C31.7821 52.5659 32.2621 53.1499 32.7581 53.6299C33.2701 54.0939 33.8061 54.4779 34.3661 54.7819C34.9261 55.0699 35.5181 55.2779 36.1421 55.4059C36.7821 55.5339 37.4541 55.5979 38.1581 55.5979C39.5661 55.5979 40.7981 55.3419 41.8541 54.8299C42.9101 54.3179 43.7901 53.5979 44.4941 52.6699C45.2141 51.7259 45.7501 50.6059 46.1021 49.3099C46.4701 47.9979 46.6541 46.5579 46.6541 44.9899C46.6541 41.4379 45.9981 38.8299 44.6861 37.1659C43.3741 35.4859 41.4941 34.6459 39.0461 34.6459C37.4621 34.6459 36.0301 35.0539 34.7501 35.8699C33.4701 36.6859 32.3261 37.8219 31.3181 39.2779V51.8779ZM31.2221 37.5019C32.2781 36.0619 33.5101 34.9179 34.9181 34.0699C36.3421 33.2219 37.9341 32.7979 39.6941 32.7979C42.6221 32.7979 44.9021 33.8139 46.5341 35.8459C48.1821 37.8779 49.0061 40.9259 49.0061 44.9899C49.0061 46.7339 48.7741 48.3659 48.3101 49.8859C47.8621 51.3899 47.1901 52.7019 46.2941 53.8219C45.4141 54.9259 44.3261 55.7979 43.0301 56.4379C41.7501 57.0779 40.2701 57.3979 38.5901 57.3979C36.9741 57.3979 35.5741 57.1019 34.3901 56.5099C33.2061 55.9179 32.1821 55.0459 31.3181 53.8939V65.5339H29.0141V33.2059H30.2861C30.6861 33.2059 30.9181 33.4059 30.9821 33.8059L31.2221 37.5019ZM68.8665 45.5419C66.5945 45.6219 64.6345 45.8059 62.9865 46.0939C61.3545 46.3659 60.0025 46.7419 58.9305 47.2219C57.8745 47.7019 57.0905 48.2779 56.5785 48.9499C56.0665 49.6059 55.8105 50.3579 55.8105 51.2059C55.8105 52.0059 55.9385 52.7019 56.1945 53.2939C56.4665 53.8699 56.8185 54.3499 57.2505 54.7339C57.6985 55.1019 58.2105 55.3739 58.7865 55.5499C59.3625 55.7259 59.9625 55.8139 60.5865 55.8139C61.5145 55.8139 62.3625 55.7179 63.1305 55.5259C63.9145 55.3179 64.6345 55.0379 65.2905 54.6859C65.9625 54.3179 66.5865 53.8859 67.1625 53.3899C67.7385 52.8939 68.3065 52.3579 68.8665 51.7819V45.5419ZM54.8265 36.5899C56.0745 35.3419 57.3865 34.3979 58.7625 33.7579C60.1385 33.1179 61.6985 32.7979 63.4425 32.7979C64.7225 32.7979 65.8425 33.0059 66.8025 33.4219C67.7625 33.8219 68.5545 34.4059 69.1785 35.1739C69.8185 35.9259 70.2985 36.8459 70.6185 37.9339C70.9385 39.0059 71.0985 40.2059 71.0985 41.5339V57.0859H70.1865C69.7065 57.0859 69.4105 56.8619 69.2985 56.4139L68.9625 53.3419C68.3065 53.9819 67.6505 54.5579 66.9945 55.0699C66.3545 55.5819 65.6825 56.0139 64.9785 56.3659C64.2745 56.7179 63.5145 56.9899 62.6985 57.1819C61.8825 57.3739 60.9865 57.4699 60.0105 57.4699C59.1945 57.4699 58.4025 57.3499 57.6345 57.1099C56.8665 56.8699 56.1785 56.5019 55.5705 56.0059C54.9785 55.5099 54.4985 54.8779 54.1305 54.1099C53.7785 53.3259 53.6025 52.3899 53.6025 51.3019C53.6025 50.2939 53.8905 49.3579 54.4665 48.4939C55.0425 47.6299 55.9465 46.8779 57.1785 46.2379C58.4105 45.5979 59.9865 45.0859 61.9065 44.7019C63.8425 44.3179 66.1625 44.0939 68.8665 44.0299V41.5339C68.8665 39.3259 68.3865 37.6299 67.4265 36.4459C66.4825 35.2459 65.0745 34.6459 63.2025 34.6459C62.0505 34.6459 61.0665 34.8059 60.2505 35.1259C59.4505 35.4459 58.7705 35.7979 58.2105 36.1819C57.6505 36.5659 57.1945 36.9179 56.8425 37.2379C56.4905 37.5579 56.1945 37.7179 55.9545 37.7179C55.7785 37.7179 55.6345 37.6779 55.5225 37.5979C55.4105 37.5179 55.3145 37.4139 55.2345 37.2859L54.8265 36.5899ZM94.8045 36.3979C94.7245 36.4779 94.6445 36.5499 94.5645 36.6139C94.5005 36.6619 94.4045 36.6859 94.2765 36.6859C94.1165 36.6859 93.9005 36.5819 93.6285 36.3739C93.3565 36.1499 92.9885 35.9099 92.5245 35.6539C92.0605 35.3979 91.4765 35.1659 90.7725 34.9579C90.0845 34.7339 89.2445 34.6219 88.2525 34.6219C86.8765 34.6219 85.6525 34.8699 84.5805 35.3659C83.5245 35.8459 82.6285 36.5419 81.8925 37.4539C81.1565 38.3659 80.5965 39.4699 80.2125 40.7659C79.8445 42.0619 79.6605 43.5179 79.6605 45.1339C79.6605 46.8139 79.8525 48.3019 80.2365 49.5979C80.6365 50.8939 81.1965 51.9899 81.9165 52.8859C82.6365 53.7659 83.5085 54.4379 84.5325 54.9019C85.5565 55.3659 86.6925 55.5979 87.9405 55.5979C89.0925 55.5979 90.0525 55.4619 90.8205 55.1899C91.6045 54.9179 92.2445 54.6219 92.7405 54.3019C93.2525 53.9819 93.6525 53.6859 93.9405 53.4139C94.2285 53.1419 94.4685 53.0059 94.6605 53.0059C94.8525 53.0059 95.0125 53.0859 95.1405 53.2459L95.7405 54.0139C95.3725 54.4939 94.9085 54.9419 94.3485 55.3579C93.7885 55.7739 93.1565 56.1339 92.4525 56.4379C91.7485 56.7419 90.9805 56.9739 90.1485 57.1339C89.3325 57.3099 88.4765 57.3979 87.5805 57.3979C86.0605 57.3979 84.6685 57.1259 83.4045 56.5819C82.1565 56.0219 81.0765 55.2219 80.1645 54.1819C79.2685 53.1259 78.5645 51.8379 78.0525 50.3179C77.5565 48.7979 77.3085 47.0699 77.3085 45.1339C77.3085 43.3099 77.5485 41.6459 78.0285 40.1419C78.5085 38.6379 79.2125 37.3419 80.1405 36.2539C81.0685 35.1659 82.1965 34.3259 83.5245 33.7339C84.8685 33.1259 86.4045 32.8219 88.1325 32.8219C89.6845 32.8219 91.0605 33.0699 92.2605 33.5659C93.4605 34.0619 94.5085 34.7339 95.4045 35.5819L94.8045 36.3979ZM117.672 42.7339C117.672 41.4539 117.488 40.3099 117.12 39.3019C116.768 38.2779 116.264 37.4139 115.608 36.7099C114.952 36.0059 114.168 35.4699 113.256 35.1019C112.36 34.7179 111.368 34.5259 110.28 34.5259C109.048 34.5259 107.944 34.7179 106.968 35.1019C105.992 35.4859 105.144 36.0379 104.424 36.7579C103.72 37.4779 103.152 38.3419 102.72 39.3499C102.288 40.3579 102 41.4859 101.856 42.7339H117.672ZM101.736 44.1979V44.6539C101.736 46.4459 101.944 48.0219 102.36 49.3819C102.776 50.7419 103.368 51.8859 104.136 52.8139C104.904 53.7259 105.832 54.4139 106.92 54.8779C108.008 55.3419 109.224 55.5739 110.568 55.5739C111.768 55.5739 112.808 55.4459 113.688 55.1899C114.568 54.9179 115.304 54.6219 115.896 54.3019C116.504 53.9659 116.984 53.6699 117.336 53.4139C117.688 53.1419 117.944 53.0059 118.104 53.0059C118.312 53.0059 118.472 53.0859 118.584 53.2459L119.208 54.0139C118.824 54.4939 118.312 54.9419 117.672 55.3579C117.048 55.7739 116.344 56.1339 115.56 56.4379C114.792 56.7259 113.96 56.9579 113.064 57.1339C112.184 57.3099 111.296 57.3979 110.4 57.3979C108.768 57.3979 107.28 57.1179 105.936 56.5579C104.592 55.9819 103.44 55.1499 102.48 54.0619C101.52 52.9739 100.776 51.6459 100.248 50.0779C99.7364 48.4939 99.4804 46.6859 99.4804 44.6539C99.4804 42.9419 99.7204 41.3659 100.2 39.9259C100.696 38.4699 101.4 37.2219 102.312 36.1819C103.24 35.1259 104.368 34.3019 105.696 33.7099C107.04 33.1179 108.56 32.8219 110.256 32.8219C111.6 32.8219 112.848 33.0539 114 33.5179C115.152 33.9819 116.152 34.6619 117 35.5579C117.848 36.4379 118.512 37.5259 118.992 38.8219C119.488 40.1179 119.736 41.6059 119.736 43.2859C119.736 43.6379 119.688 43.8779 119.592 44.0059C119.496 44.1339 119.336 44.1979 119.112 44.1979H101.736ZM81.645 88.3739C81.805 88.3739 81.941 88.4299 82.053 88.5419L83.013 89.5739C82.309 90.3259 81.541 91.0059 80.709 91.6139C79.893 92.2059 78.989 92.7179 77.997 93.1499C77.021 93.5659 75.941 93.8859 74.757 94.1099C73.589 94.3499 72.301 94.4699 70.893 94.4699C68.541 94.4699 66.381 94.0619 64.413 93.2459C62.461 92.4139 60.781 91.2459 59.373 89.7419C57.965 88.2219 56.869 86.3899 56.085 84.2459C55.317 82.1019 54.933 79.7179 54.933 77.0939C54.933 74.5179 55.333 72.1659 56.133 70.0379C56.933 67.9099 58.053 66.0859 59.493 64.5659C60.933 63.0299 62.661 61.8459 64.677 61.0139C66.693 60.1659 68.917 59.7419 71.349 59.7419C73.669 59.7419 75.725 60.1019 77.517 60.8219C79.309 61.5419 80.941 62.5579 82.413 63.8699L81.669 64.9499C81.541 65.1419 81.341 65.2379 81.069 65.2379C80.877 65.2379 80.565 65.0619 80.133 64.7099C79.701 64.3579 79.101 63.9739 78.333 63.5579C77.565 63.1259 76.605 62.7339 75.453 62.3819C74.317 62.0299 72.949 61.8539 71.349 61.8539C69.301 61.8539 67.421 62.2059 65.709 62.9099C64.013 63.6139 62.549 64.6219 61.317 65.9339C60.101 67.2459 59.149 68.8459 58.461 70.7339C57.773 72.6219 57.429 74.7419 57.429 77.0939C57.429 79.4939 57.773 81.6379 58.461 83.5259C59.165 85.4139 60.125 87.0139 61.341 88.3259C62.557 89.6219 63.989 90.6219 65.637 91.3259C67.301 92.0139 69.093 92.3579 71.013 92.3579C72.229 92.3579 73.309 92.2779 74.253 92.1179C75.213 91.9579 76.093 91.7179 76.893 91.3979C77.693 91.0779 78.437 90.6859 79.125 90.2219C79.813 89.7579 80.493 89.2139 81.165 88.5899C81.245 88.5259 81.325 88.4779 81.405 88.4459C81.485 88.3979 81.565 88.3739 81.645 88.3739ZM91.0425 70.2059V94.0859H88.7625V70.2059H91.0425ZM92.0265 61.9739C92.0265 62.2619 91.9625 62.5339 91.8345 62.7899C91.7225 63.0299 91.5705 63.2459 91.3785 63.4379C91.1865 63.6299 90.9625 63.7819 90.7065 63.8939C90.4505 64.0059 90.1785 64.0619 89.8905 64.0619C89.6025 64.0619 89.3305 64.0059 89.0745 63.8939C88.8185 63.7819 88.5945 63.6299 88.4025 63.4379C88.2105 63.2459 88.0585 63.0299 87.9465 62.7899C87.8345 62.5339 87.7785 62.2619 87.7785 61.9739C87.7785 61.6859 87.8345 61.4139 87.9465 61.1579C88.0585 60.8859 88.2105 60.6539 88.4025 60.4619C88.5945 60.2699 88.8185 60.1179 89.0745 60.0059C89.3305 59.8939 89.6025 59.8379 89.8905 59.8379C90.1785 59.8379 90.4505 59.8939 90.7065 60.0059C90.9625 60.1179 91.1865 60.2699 91.3785 60.4619C91.5705 60.6539 91.7225 60.8859 91.8345 61.1579C91.9625 61.4139 92.0265 61.6859 92.0265 61.9739ZM119.01 94.0859H116.706V72.6539H102.882V88.8539C102.882 89.5099 102.962 90.0779 103.122 90.5579C103.298 91.0219 103.53 91.4059 103.818 91.7099C104.122 92.0139 104.474 92.2379 104.874 92.3819C105.274 92.5259 105.706 92.5979 106.17 92.5979C106.746 92.5979 107.242 92.5179 107.658 92.3579C108.074 92.1819 108.434 91.9979 108.738 91.8059C109.042 91.5979 109.29 91.4139 109.482 91.2539C109.674 91.0779 109.826 90.9899 109.938 90.9899C110.066 90.9899 110.194 91.0699 110.322 91.2299L110.946 92.2379C110.338 92.9099 109.562 93.4539 108.618 93.8699C107.69 94.2699 106.722 94.4699 105.714 94.4699C104.098 94.4699 102.834 94.0219 101.922 93.1259C101.026 92.2299 100.578 90.8459 100.578 88.9739V72.6539H97.146C96.97 72.6539 96.826 72.6059 96.714 72.5099C96.602 72.4139 96.546 72.2779 96.546 72.1019V71.2139L100.626 70.9259L101.202 62.3819C101.234 62.2379 101.298 62.1099 101.394 61.9979C101.49 61.8859 101.626 61.8299 101.802 61.8299H102.882V70.9499H119.01V94.0859ZM120.066 61.6859C120.066 61.9739 120.002 62.2459 119.874 62.5019C119.762 62.7419 119.602 62.9579 119.394 63.1499C119.202 63.3419 118.978 63.4939 118.722 63.6059C118.466 63.7179 118.194 63.7739 117.906 63.7739C117.618 63.7739 117.346 63.7179 117.09 63.6059C116.834 63.4939 116.61 63.3419 116.418 63.1499C116.226 62.9579 116.074 62.7419 115.962 62.5019C115.85 62.2459 115.794 61.9739 115.794 61.6859C115.794 61.3979 115.85 61.1259 115.962 60.8699C116.074 60.5979 116.226 60.3659 116.418 60.1739C116.61 59.9819 116.834 59.8299 117.09 59.7179C117.346 59.6059 117.618 59.5499 117.906 59.5499C118.194 59.5499 118.466 59.6059 118.722 59.7179C118.978 59.8299 119.202 59.9819 119.394 60.1739C119.602 60.3659 119.762 60.5979 119.874 60.8699C120.002 61.1259 120.066 61.3979 120.066 61.6859ZM142.796 70.2059V71.1659C142.796 71.5019 142.684 71.8059 142.46 72.0779L127.508 92.2859H142.196V94.0859H124.748V93.1739C124.748 92.9019 124.868 92.6059 125.108 92.2859L140.108 72.0059H125.54V70.2059H142.796ZM164.688 79.7339C164.688 78.4539 164.504 77.3099 164.136 76.3019C163.784 75.2779 163.28 74.4139 162.624 73.7099C161.968 73.0059 161.184 72.4699 160.272 72.1019C159.376 71.7179 158.384 71.5259 157.296 71.5259C156.064 71.5259 154.96 71.7179 153.984 72.1019C153.008 72.4859 152.16 73.0379 151.44 73.7579C150.736 74.4779 150.168 75.3419 149.736 76.3499C149.304 77.3579 149.016 78.4859 148.872 79.7339H164.688ZM148.752 81.1979V81.6539C148.752 83.4459 148.96 85.0219 149.376 86.3819C149.792 87.7419 150.384 88.8859 151.152 89.8139C151.92 90.7259 152.848 91.4139 153.936 91.8779C155.024 92.3419 156.24 92.5739 157.584 92.5739C158.784 92.5739 159.824 92.4459 160.704 92.1899C161.584 91.9179 162.32 91.6219 162.912 91.3019C163.52 90.9659 164 90.6699 164.352 90.4139C164.704 90.1419 164.96 90.0059 165.12 90.0059C165.328 90.0059 165.488 90.0859 165.6 90.2459L166.224 91.0139C165.84 91.4939 165.328 91.9419 164.688 92.3579C164.064 92.7739 163.36 93.1339 162.576 93.4379C161.808 93.7259 160.976 93.9579 160.08 94.1339C159.2 94.3099 158.312 94.3979 157.416 94.3979C155.784 94.3979 154.296 94.1179 152.952 93.5579C151.608 92.9819 150.456 92.1499 149.496 91.0619C148.536 89.9739 147.792 88.6459 147.264 87.0779C146.752 85.4939 146.496 83.6859 146.496 81.6539C146.496 79.9419 146.736 78.3659 147.216 76.9259C147.712 75.4699 148.416 74.2219 149.328 73.1819C150.256 72.1259 151.384 71.3019 152.712 70.7099C154.056 70.1179 155.576 69.8219 157.272 69.8219C158.616 69.8219 159.864 70.0539 161.016 70.5179C162.168 70.9819 163.168 71.6619 164.016 72.5579C164.864 73.4379 165.528 74.5259 166.008 75.8219C166.504 77.1179 166.752 78.6059 166.752 80.2859C166.752 80.6379 166.704 80.8779 166.608 81.0059C166.512 81.1339 166.352 81.1979 166.128 81.1979H148.752ZM175.151 74.3819C176.255 73.0059 177.527 71.9019 178.967 71.0699C180.423 70.2379 182.039 69.8219 183.815 69.8219C185.127 69.8219 186.279 70.0299 187.271 70.4459C188.279 70.8619 189.111 71.4619 189.767 72.2459C190.423 73.0299 190.919 73.9739 191.255 75.0779C191.591 76.1819 191.759 77.4299 191.759 78.8219V94.0859H189.455V78.8219C189.455 76.5819 188.943 74.8299 187.919 73.5659C186.895 72.2859 185.335 71.6459 183.239 71.6459C181.687 71.6459 180.231 72.0459 178.871 72.8459C177.527 73.6299 176.327 74.7259 175.271 76.1339V94.0859H172.967V70.2059H174.239C174.639 70.2059 174.871 70.4059 174.935 70.8059L175.151 74.3819Z" fill="white"/>
<defs>
<clipPath id="clip0">
<rect width="157.441" height="131.19" fill="white" transform="matrix(0.903625 -0.428324 0.385819 0.922575 95 21.4357)"/>
</clipPath>
</defs>
</svg>
